<svg width="25" height="25" viewBox="0 0 25 25" fill="none" xmlns="http://www.w3.org/2000/svg">
<path d="M0 12.5025C0 12.9784 0.385694 13.3641 0.861551 13.3641H17.2711L14.0703 16.5598C13.7347 16.8954 13.7347 17.4414 14.0703 17.777C14.2356 17.9423 14.456 18.0275 14.6764 18.0275C14.8968 18.0275 15.1172 17.9423 15.2825 17.777L19.9459 13.1136C20.2815 12.778 20.2815 12.232 19.9459 11.8964L15.2825 7.23303C14.9469 6.89742 14.4009 6.89742 14.0653 7.23303C13.7297 7.56863 13.7297 8.11461 14.0653 8.45022L17.2611 11.646H0.861551C0.385694 11.646 0 12.0267 0 12.5025Z" fill="#BBE1FA"/>
<path d="M19.8558 24.7545C22.6959 24.7545 25.0001 22.4454 25.0001 19.6053V5.39469C25.0001 2.55458 22.6909 0.245422 19.8558 0.245422H5.64524C2.80512 0.245422 0.500977 2.55458 0.500977 5.39469V8.31495C0.500977 8.7908 0.886671 9.17149 1.35752 9.17149C1.83337 9.17149 2.21907 8.7858 2.21907 8.31495V5.39469C2.21907 3.50629 3.75684 1.96351 5.64524 1.96351H19.8558C21.7442 1.96351 23.282 3.50128 23.282 5.39469V19.6053C23.282 21.4937 21.7442 23.0364 19.8558 23.0364H5.64524C3.75684 23.0364 2.21907 21.4987 2.21907 19.6053V16.7201C2.21907 16.2442 1.83337 15.8585 1.35752 15.8585C0.881662 15.8585 0.500977 16.2442 0.500977 16.7201V19.6053C0.500977 22.4454 2.81013 24.7545 5.64524 24.7545H19.8558Z" fill="#BBE1FA"/>
</svg>
