<svg width="107" height="107" viewBox="0 0 107 107" fill="none" xmlns="http://www.w3.org/2000/svg">
<g filter="url(#filter0_b_235_45)">
<rect x="0.5" y="0.5" width="106" height="106" rx="20.5" fill="#0F4C75" fill-opacity="0.3" stroke="white" stroke-linecap="round" stroke-dasharray="4 4"/>
<g clip-path="url(#clip0_235_45)">
<path d="M66.1591 47.2209H60.8264V41.8825C60.8264 40.6395 59.8185 39.6316 58.5753 39.6316H49.4753C48.2323 39.6316 47.2244 40.6395 47.2244 41.8825V47.2207H41.8915C40.6485 47.2207 39.6406 48.2286 39.6406 49.4715V58.5787C39.6406 59.8216 40.6485 60.8295 41.8915 60.8295H47.2244V66.1675C47.2244 67.4105 48.2323 68.4184 49.4753 68.4184H58.5753C59.8185 68.4184 60.8264 67.4105 60.8264 66.1675V60.8295H66.1591C67.4021 60.8295 68.41 59.8216 68.41 58.5787V49.4715C68.41 48.2286 67.4021 47.2209 66.1591 47.2209ZM63.9082 56.3278H58.5753C57.3323 56.3278 56.3244 57.3357 56.3244 58.5787V63.9167H51.7262V58.5787C51.7262 57.3357 50.7183 56.3278 49.4753 56.3278H44.1424V51.7224H49.4753C50.7183 51.7224 51.7262 50.7145 51.7262 49.4715V44.1333H56.3244V49.4715C56.3244 50.7145 57.3323 51.7224 58.5753 51.7224H63.9082V56.3278Z" fill="white"/>
<path d="M54.0249 30.5247C41.0751 30.5247 30.54 41.0669 30.54 54.0249C30.54 66.983 41.0754 77.5252 54.0249 77.5252C66.9745 77.5252 77.5098 66.983 77.5098 54.0249C77.5098 41.0669 66.9747 30.5247 54.0249 30.5247ZM54.0249 73.0233C43.5576 73.0233 35.042 64.5007 35.042 54.0249C35.042 43.5491 43.5579 35.0266 54.0249 35.0266C64.492 35.0266 73.0079 43.5491 73.0079 54.0249C73.0079 64.5007 64.4922 73.0233 54.0249 73.0233Z" fill="white"/>
<path d="M54.0248 27.9432C55.2678 27.9432 56.2757 26.9353 56.2757 25.6923V22.1509C56.2757 20.9079 55.2678 19.9 54.0248 19.9C52.7818 19.9 51.7739 20.9079 51.7739 22.1509V25.6923C51.7739 26.9353 52.7818 27.9432 54.0248 27.9432Z" fill="white"/>
<path d="M54.0248 80.1068C52.7818 80.1068 51.7739 81.1147 51.7739 82.3577V85.8989C51.7739 87.1418 52.7818 88.15 54.0248 88.15C55.2678 88.15 56.2757 87.1418 56.2757 85.8989V82.3577C56.2757 81.1147 55.2678 80.1068 54.0248 80.1068Z" fill="white"/>
<path d="M85.8755 51.7742H82.3373C81.0943 51.7742 80.0864 52.7821 80.0864 54.025C80.0864 55.268 81.0943 56.2759 82.3373 56.2759H85.8755C87.1187 56.2759 88.1266 55.268 88.1266 54.025C88.1266 52.7821 87.1187 51.7742 85.8755 51.7742Z" fill="white"/>
<path d="M25.7136 51.7742H22.1749C20.932 51.7742 19.9238 52.7821 19.9238 54.025C19.9238 55.268 20.932 56.2759 22.1749 56.2759H25.7136C26.9566 56.2759 27.9645 55.268 27.9645 54.025C27.9645 52.7821 26.9566 51.7742 25.7136 51.7742Z" fill="white"/>
<path d="M74.9549 29.8951L72.4519 32.3997C71.5729 33.2789 71.5734 34.7043 72.453 35.5831C72.8924 36.0222 73.4681 36.2417 74.0439 36.2417C74.6205 36.2417 75.1968 36.0217 75.6362 35.5819L78.1392 33.0773C79.0179 32.1981 79.0175 30.7729 78.138 29.8942C77.2588 29.0152 75.8334 29.0157 74.9549 29.8951Z" fill="white"/>
<path d="M32.4129 72.4675L29.9104 74.9718C29.0319 75.8512 29.0326 77.2762 29.9118 78.1552C30.3512 78.5943 30.927 78.8138 31.5029 78.8138C32.0792 78.8138 32.6558 78.5939 33.0952 78.154L35.5977 75.6495C36.4764 74.77 36.4757 73.3451 35.5965 72.4659C34.7169 71.5876 33.2914 71.5883 32.4129 72.4675Z" fill="white"/>
<path d="M32.4137 35.5818C32.853 36.0216 33.4294 36.2415 34.0059 36.2415C34.5816 36.2415 35.1574 36.022 35.5971 35.5829C36.4765 34.7044 36.4767 33.2789 35.598 32.3995L33.0952 29.8952C32.2167 29.0157 30.7913 29.0148 29.9118 29.894C29.0324 30.7725 29.032 32.1977 29.9107 33.0772L32.4137 35.5818Z" fill="white"/>
<path d="M75.6365 72.4675C74.7576 71.5882 73.3324 71.5876 72.4534 72.4661C71.5742 73.3451 71.5733 74.77 72.452 75.6497L74.9545 78.1543C75.3941 78.5941 75.9704 78.814 76.5468 78.814C77.1226 78.814 77.6985 78.5946 78.1379 78.1554C79.0171 77.2767 79.0178 75.8517 78.1393 74.972L75.6365 72.4675Z" fill="white"/>
</g>
</g>
<defs>
<filter id="filter0_b_235_45" x="-45" y="-45" width="197" height="197" filterUnits="userSpaceOnUse" color-interpolation-filters="sRGB">
<feFlood flood-opacity="0" result="BackgroundImageFix"/>
<feGaussianBlur in="BackgroundImage" stdDeviation="22.5"/>
<feComposite in2="SourceAlpha" operator="in" result="effect1_backgroundBlur_235_45"/>
<feBlend mode="normal" in="SourceGraphic" in2="effect1_backgroundBlur_235_45" result="shape"/>
</filter>
<clipPath id="clip0_235_45">
<rect width="68.25" height="68.25" fill="white" transform="translate(19.8999 19.9)"/>
</clipPath>
</defs>
</svg>
