<svg width="21" height="20" viewBox="0 0 21 20" fill="none" xmlns="http://www.w3.org/2000/svg">
<g clip-path="url(#clip0_173_766)">
<path d="M1.10244 11.8079H7.37167L8.35732 7.16426C8.40741 6.92844 8.61733 6.761 8.85965 6.7684C9.10067 6.7748 9.3027 6.95244 9.34008 7.19055L10.161 12.4233L10.6734 10.7901C10.7331 10.6 10.8999 10.4634 11.0981 10.4426C11.2962 10.4218 11.4878 10.5206 11.5857 10.6942L12.3051 11.9703L19.3369 11.9158C19.6181 11.3686 19.8252 10.7691 19.9275 10.107C20.2126 8.26318 19.7361 6.40813 18.6531 5.14466C17.6936 4.02545 16.3296 3.43396 14.7085 3.43396C12.1931 3.43396 10.7639 5.12307 10.2472 5.88501C9.73055 5.12307 8.30125 3.43396 5.78582 3.43396C4.16478 3.43396 2.80075 4.02545 1.84129 5.14466C0.758362 6.40803 0.281828 8.26318 0.566929 10.107C0.662596 10.7256 0.849031 11.29 1.10244 11.8079Z" fill="white" fill-opacity="0.5"/>
<path d="M12.0185 12.9721C11.8387 12.9692 11.6685 12.8761 11.5792 12.7178L11.2819 12.1905L10.4754 14.761C10.4096 14.9705 10.2156 15.1112 9.99876 15.1112C9.98637 15.1112 9.97397 15.1108 9.96147 15.1098C9.72995 15.0926 9.54072 14.9181 9.50473 14.6888L8.77269 10.0228L8.26566 12.4116C8.21668 12.6425 8.01275 12.8077 7.77673 12.8077H1.71094C2.89913 14.4283 4.73789 15.5198 6.20898 16.392C6.93003 16.8196 7.61109 17.2234 8.08473 17.6098C9.83362 19.0365 9.99366 19.7563 9.99956 19.7863C10.015 19.9112 10.1205 20.0099 10.2471 20.0099C10.3762 20.0099 10.4837 19.9159 10.4954 19.7872C10.4966 19.7801 10.6323 19.0603 12.4104 17.6098C12.8841 17.2234 13.5651 16.8196 14.2862 16.392C15.7229 15.5401 17.5106 14.4793 18.7001 12.9204L12.0185 12.9721Z" fill="white" fill-opacity="0.5"/>
</g>
<defs>
<clipPath id="clip0_173_766">
<rect width="19.5228" height="19.5228" fill="white" transform="translate(0.48584 0.310303)"/>
</clipPath>
</defs>
</svg>
