<svg width="18" height="21" viewBox="0 0 18 21" fill="none" xmlns="http://www.w3.org/2000/svg">
<path fill-rule="evenodd" clip-rule="evenodd" d="M9.12259 18.854L9.12155 17.9434C8.92309 17.8152 9.11687 17.9252 8.82052 17.7992L8.47666 17.6731L8.37721 16.4425L7.02301 16.4649L7.00191 15.259C7.48802 14.9977 7.68171 15.0985 8.35432 15.1217L8.35284 13.9473C8.60689 13.8433 8.64852 13.869 8.80825 13.8076C9.16488 13.6707 8.90555 13.8254 9.12036 13.6514L9.10972 12.2541L4.21203 12.2615L4.23612 11.0084L9.11761 11.0335L9.16042 9.92913L14.3367 9.81808C14.2499 9.69267 14.3159 9.79355 14.1955 9.50831C14.0595 9.18572 14.1886 9.37553 14.0318 9.10584L14.0329 9.7669L4.2188 9.73288L4.23634 8.50107L13.9584 8.51748C13.9237 8.49695 13.8695 8.48319 13.8423 8.47695C13.2193 8.33453 9.71551 8.43275 9.07725 8.44159L9.16072 7.27438L4.20512 7.25185L4.26533 6.00063L9.21 5.98661L9.16837 4.77514L4.66396 4.76916L4.65541 3.54041L2.8724 3.55662C2.72687 5.20134 2.68123 18.2714 3.02746 18.8503L9.12259 18.854V18.854Z" fill="#FEFDFD" fill-opacity="0.1"/>
<path fill-rule="evenodd" clip-rule="evenodd" d="M9.16843 4.77524L9.21006 5.9867L14.0289 6.0529L14.0137 7.2528L9.16078 7.27447L9.07731 8.44167C9.71558 8.43283 13.2194 8.33461 13.8423 8.47703C13.8696 8.48328 13.9238 8.49703 13.9585 8.51757L14.0319 9.10592C14.1886 9.37561 14.0596 9.1858 14.1956 9.50839C14.316 9.79363 14.25 9.69275 14.3368 9.81815L9.16048 9.92921L9.11767 11.0335L9.10978 12.2542L9.12042 13.6515C8.90561 13.8255 9.16494 13.6707 8.80831 13.8077C8.64857 13.869 8.60695 13.8433 8.35289 13.9474L8.35437 15.1217C7.68177 15.0985 7.48807 14.9977 7.00195 15.2591L8.34828 15.1544L8.44647 13.969L9.79852 13.9274L9.80306 15.1746L11.2021 15.2059C11.3032 16.8417 11.2877 16.3341 9.84468 16.4802C9.83019 16.648 9.83643 16.9241 9.82068 17.0604C9.81986 17.0676 9.78351 17.3274 9.78173 17.3362L9.6596 17.7156L8.47672 17.6732L8.82057 17.7993C9.11693 17.9252 8.92315 17.8153 9.12161 17.9434L9.12265 18.8541L12.6612 18.8171L12.6626 18.7667L12.567 16.4529L15.2675 16.521L15.4036 16.4023L15.4137 3.49525L13.5482 3.44873L13.2663 4.68904C12.8028 4.76121 13.4715 4.68572 12.962 4.73024C12.0871 4.80661 10.4144 4.64445 9.16843 4.77524V4.77524Z" fill="white" fill-opacity="0.5"/>
<path fill-rule="evenodd" clip-rule="evenodd" d="M13.6354 2.34153L17.044 2.30484C17.365 3.17144 17.2633 18.3354 17.1139 20.1729L9.15794 20.1685L9.1786 19.0116L12.6524 18.9908L12.6613 18.8164L9.12278 18.8535L3.02768 18.8497C2.68145 18.2708 2.72709 5.20011 2.87263 3.55532L4.65562 3.5391L4.66952 2.22496L0.971515 2.30737C0.774915 4.07837 0.741771 19.5697 1.08026 20.1629C1.61543 20.615 15.7796 20.0513 17.2946 20.4971C17.568 19.3267 17.59 2.63762 17.2163 2.30631C17.0133 2.12646 16.7289 2.14175 16.2797 2.13623L13.5151 2.24663L13.6354 2.34153V2.34153Z" fill="#FEECB1" fill-opacity="0.1"/>
<path fill-rule="evenodd" clip-rule="evenodd" d="M13.5481 3.44798L15.4136 3.4945L15.4036 16.4018L15.3544 18.9861L12.6522 18.9909L9.17837 19.0118L9.15771 20.1687L17.1137 20.173C17.2631 18.3356 17.3649 3.17211 17.0439 2.30554L13.6353 2.34223L13.5481 3.44798V3.44798Z" fill="#FBD33B" fill-opacity="0.1"/>
<path fill-rule="evenodd" clip-rule="evenodd" d="M8.99974 1.01558L11.8766 0.992057L11.785 2.22583L9.2028 2.2461C8.99996 3.02203 8.99245 4.01513 9.16831 4.77405C10.4143 4.64328 12.087 4.80542 12.9618 4.72907C13.4713 4.68455 12.8027 4.76003 13.2661 4.68787L13.5481 3.44771L13.6352 2.34212L13.5148 2.24723L12.0219 2.21673L11.9504 0.88208L6.45183 0.94388L6.37549 1.02216L8.99974 1.01558V1.01558Z" fill="white" fill-opacity="0.5"/>
<path fill-rule="evenodd" clip-rule="evenodd" d="M4.66917 2.22604L4.65527 3.53997L4.66382 4.76859L9.16826 4.77457C8.9924 4.01563 8.9999 3.02252 9.20275 2.24657L6.36136 2.21248L6.3754 1.02261L6.45174 0.944336C5.9666 1.36404 6.24845 1.46152 6.12194 2.2077L4.66917 2.22604V2.22604Z" fill="#0C4C75" fill-opacity="0.1"/>
<path fill-rule="evenodd" clip-rule="evenodd" d="M7.00195 15.259L7.02306 16.4649L8.37728 16.4424L8.47673 17.6731L9.65962 17.7156L9.78174 17.3361C9.78353 17.3273 9.81988 17.0675 9.82069 17.0603C9.83645 16.924 9.8302 16.6479 9.8447 16.4801C11.2877 16.3339 11.3032 16.8416 11.2021 15.2058L9.80308 15.1745L9.79854 13.9272L8.44648 13.9688L8.34829 15.1543L7.00195 15.259V15.259Z" fill="#0C4C75" fill-opacity="0.1"/>
<path fill-rule="evenodd" clip-rule="evenodd" d="M9.05563 8.52909L13.7879 8.56512L13.8067 9.6284L8.99974 9.6631L9.05563 8.52909V8.52909ZM14.0317 9.10514L13.9584 8.51666L4.23629 8.50024L4.21875 9.73229L14.0328 9.76633L14.0317 9.10514Z" fill="#0C4C75" fill-opacity="0.1"/>
<path fill-rule="evenodd" clip-rule="evenodd" d="M9.02165 6.25008C10.1466 5.79558 12.4655 6.10808 13.7959 6.06536L13.7885 7.17926L9.04856 7.21514L9.02165 6.25008V6.25008ZM9.16117 7.27362L14.014 7.25195L14.0293 6.05226L9.21045 5.98608L4.26577 6.0001L4.20557 7.25109L9.16117 7.27362Z" fill="#0C4C75" fill-opacity="0.1"/>
<path fill-rule="evenodd" clip-rule="evenodd" d="M9.10963 12.2536L9.11751 11.0323L4.236 11.0072L4.21191 12.261L9.10963 12.2536Z" fill="#0C4C75" fill-opacity="0.1"/>
<path fill-rule="evenodd" clip-rule="evenodd" d="M9.04839 7.21523L13.7883 7.17933L13.7957 6.06491C12.4654 6.10765 10.1465 5.79501 9.02148 6.24971L9.04839 7.21523V7.21523Z" fill="#DA2C09" fill-opacity="0.1"/>
<path fill-rule="evenodd" clip-rule="evenodd" d="M9 9.66332L13.8069 9.62862L13.7881 8.56521L9.05589 8.52917L9 9.66332Z" fill="#DA2C09" fill-opacity="0.1"/>
<path fill-rule="evenodd" clip-rule="evenodd" d="M12.6627 18.7658L12.6613 18.8162L12.6523 18.9905L15.3545 18.9857L15.4037 16.4014L15.2676 16.5201C14.9425 16.9838 14.415 17.3218 14.0124 17.6979C13.6199 18.0647 13.2159 18.5437 12.6627 18.7658Z" fill="white" fill-opacity="0.5"/>
<path fill-rule="evenodd" clip-rule="evenodd" d="M12.6625 18.766C13.2157 18.5438 13.6197 18.0648 14.0122 17.698C14.4148 17.3218 14.9424 16.9837 15.2674 16.52L12.5669 16.4519L12.6625 18.766V18.766Z" fill="#0C4C75" fill-opacity="0.1"/>
<path fill-rule="evenodd" clip-rule="evenodd" d="M9.20306 2.24547L11.7852 2.22521L11.8769 0.992188L9 1.0157L9.20306 2.24547Z" fill="#087C6B" fill-opacity="0.1"/>
<path fill-rule="evenodd" clip-rule="evenodd" d="M9.20323 2.2466L9.00016 1.01575L6.37586 1.02233L6.36182 2.21251L9.20323 2.2466Z" fill="white" fill-opacity="0.5"/>
<path fill-rule="evenodd" clip-rule="evenodd" d="M11.8768 0.992188L9 1.0157L9.20299 2.24547L11.7853 2.22521L11.8768 0.992188Z" fill="#0C4C75" fill-opacity="0.1"/>
<path fill-rule="evenodd" clip-rule="evenodd" d="M9.20332 2.2466L9.00032 1.01575L6.37601 1.02233L6.36182 2.21258L9.20332 2.2466Z" fill="white" fill-opacity="0.5"/>
<path fill-rule="evenodd" clip-rule="evenodd" d="M11.785 2.2257L9.20272 2.24596C8.99988 3.02186 8.99237 4.01484 9.16823 4.77373C10.4142 4.6431 12.0869 4.80522 12.9617 4.72881C13.0217 4.72363 13.0653 4.71997 13.0965 4.71765C13.1097 4.71359 13.156 4.70482 13.2661 4.68768L13.5479 3.44759L13.6351 2.34198L13.5147 2.24716L12.0218 2.21659L11.9503 0.88208L6.45175 0.943809L6.37549 1.02208L8.99973 1.01551L11.8765 0.991983L11.785 2.2257V2.2257Z" fill="white" fill-opacity="0.5"/>
<path fill-rule="evenodd" clip-rule="evenodd" d="M9.16826 4.77463C8.9924 4.01567 8.9999 3.02259 9.20275 2.24662L6.36128 2.2126L6.37548 1.02262L6.45174 0.944336C5.9666 1.36412 6.24852 1.46161 6.12202 2.20774L4.6691 2.22602L4.65527 3.54006L4.6639 4.76872L9.16826 4.77463V4.77463Z" fill="white" fill-opacity="0.5"/>
<path fill-rule="evenodd" clip-rule="evenodd" d="M15.3542 18.9862L12.6521 18.991L9.17823 19.0119L9.15771 20.1688L17.1136 20.173C17.263 18.3357 17.3648 3.17224 17.0437 2.30554L13.6352 2.34229L13.548 3.44811L15.4135 3.4945L15.4034 16.4018L15.3542 18.9862V18.9862Z" fill="white" fill-opacity="0.5"/>
<path fill-rule="evenodd" clip-rule="evenodd" d="M9.15804 20.1685L9.17856 19.0116L12.6524 18.9907L12.6613 18.8163L9.12281 18.8535L3.02769 18.8496C2.68153 18.2707 2.72717 5.20005 2.87263 3.55526L4.65564 3.53905L4.66946 2.22484L0.971515 2.30731C0.774915 4.07831 0.741771 19.5697 1.08026 20.1628C1.61551 20.615 15.7797 20.0514 17.2947 20.4971C17.568 19.3267 17.59 2.63756 17.2163 2.30625C17.0134 2.12634 16.729 2.14162 16.2797 2.13611L13.5151 2.24663L13.6355 2.34147L17.0441 2.30472C17.3652 3.17145 17.2633 18.3353 17.1139 20.1727L9.15804 20.1685V20.1685Z" fill="white" fill-opacity="0.5"/>
<path fill-rule="evenodd" clip-rule="evenodd" d="M4.2124 12.2613L9.10994 12.2539L9.11782 11.0335L4.23641 11.0083L4.2124 12.2613Z" fill="#0C4C75" fill-opacity="0.1"/>
<path fill-rule="evenodd" clip-rule="evenodd" d="M4.21875 9.73229L14.0328 9.76639L14.0318 9.1052L13.9584 8.5166L4.23637 8.50024L4.21875 9.73229ZM8.99981 9.66315L9.05563 8.52903L13.7879 8.56513L13.8067 9.62839L8.99981 9.66315Z" fill="#0C4C75" fill-opacity="0.1"/>
<path fill-rule="evenodd" clip-rule="evenodd" d="M4.20557 7.25085L9.16101 7.27332L14.014 7.25158L14.0292 6.05184L12.0664 6.02493C12.7034 6.04932 13.3143 6.08042 13.7958 6.06493L13.7883 7.17895L9.04848 7.21477L9.02157 6.24967C9.4257 6.08633 9.98398 6.02207 10.5951 6.00473L9.21036 5.98572L4.26578 5.99967L4.20557 7.25085V7.25085Z" fill="#0C4C75" fill-opacity="0.1"/>
<path fill-rule="evenodd" clip-rule="evenodd" d="M13.7881 8.56527L9.05582 8.52917L9 9.66332L13.8068 9.62856L13.7881 8.56527Z" fill="#0C4C75" fill-opacity="0.1"/>
<path fill-rule="evenodd" clip-rule="evenodd" d="M9.04839 7.21464L13.7882 7.17882L13.7957 6.06489C13.3142 6.08037 12.7033 6.04927 12.0665 6.02489C11.5757 6.00608 11.0694 5.99126 10.595 6.00469C9.98389 6.02203 9.42561 6.08628 9.02148 6.24961L9.04839 7.21464V7.21464Z" fill="#0C4C75" fill-opacity="0.1"/>
<path fill-rule="evenodd" clip-rule="evenodd" d="M9.79852 13.9272L8.44639 13.9688L8.35423 15.082L8.35103 15.1214L8.34828 15.1543L7.00195 15.259L7.02306 16.4649L8.37719 16.4423L8.47672 17.6732L9.6596 17.7156L9.78172 17.3362C9.78358 17.3273 9.81993 17.0675 9.8206 17.0603C9.83643 16.9241 9.83019 16.6478 9.84476 16.48C11.2877 16.3339 11.3031 16.8416 11.202 15.2059L9.80306 15.1746L9.79852 13.9272V13.9272Z" fill="#0C4C75" fill-opacity="0.1"/>
</svg>
