<svg width="360" height="172" viewBox="0 0 360 172" fill="none" xmlns="http://www.w3.org/2000/svg">
<g filter="url(#filter0_b_173_762)">
<rect x="62.2573" y="69.8398" width="33.1888" height="33.1888" rx="16.5944" fill="#0F4C75" fill-opacity="0.1"/>
<rect x="61.7573" y="69.3398" width="34.1888" height="34.1888" rx="17.0944" stroke="white" stroke-opacity="0.5" stroke-linecap="round" stroke-dasharray="4 4"/>
<g clip-path="url(#clip0_173_762)">
<path d="M87.806 86.9021V84.8081C87.806 83.2566 86.5986 81.9985 85.1097 81.9985C83.6207 81.9985 82.4134 83.2566 82.4134 84.8081V90.0854C82.4134 91.8459 81.0479 93.2688 79.3583 93.2688C77.6688 93.2688 76.3033 91.8459 76.3033 90.0854V88.2285C78.988 87.8547 81.098 85.636 81.1674 82.9632V78.0194C81.1674 77.5572 80.8049 77.1793 80.3613 77.1793C80.3458 77.1793 78.5059 77.1793 78.5059 77.1793C78.4634 76.7573 78.1201 76.4237 77.7074 76.4237C77.2638 76.4237 76.9012 76.8015 76.9012 77.2637V78.771C76.9012 79.2332 77.2638 79.611 77.7074 79.611C78.124 79.611 78.4326 79.2774 78.502 78.8554H79.5589V82.9632C79.5589 84.9728 77.7498 86.6087 75.5357 86.6087C73.3254 86.6087 71.5124 84.9728 71.5124 82.9632V78.8554H72.5231C72.5655 79.2774 72.9088 79.611 73.3215 79.611C73.7651 79.611 74.0853 79.2332 74.1277 78.771V77.2637C74.1277 76.8015 73.7651 76.4237 73.3215 76.4237C72.9049 76.4237 72.5616 76.7573 72.5231 77.1793H70.7101C70.2742 77.1793 69.9116 77.5572 69.9116 78.0154V82.9592C69.9116 85.632 71.983 87.8547 74.6986 88.2245V90.0854C74.6986 92.7262 76.7893 94.9046 79.3236 94.9046C81.8965 94.9046 83.9486 92.7664 84.0296 90.0854V84.804C84.0296 84.177 84.5118 83.6746 85.1135 83.6746C85.7153 83.6746 86.1975 84.177 86.1975 84.804V86.87C85.561 87.1795 85.1135 87.8547 85.1135 88.6184C85.1135 89.6674 85.9197 90.5477 86.9651 90.5477C87.9719 90.5477 88.8166 89.7076 88.8166 88.6184C88.8128 87.8788 88.4116 87.2237 87.806 86.9021ZM86.9612 88.9118C86.7992 88.9118 86.6796 88.7872 86.6796 88.6184C86.6796 88.4496 86.7992 88.325 86.9612 88.325C87.1232 88.325 87.2428 88.4938 87.2428 88.6184C87.2428 88.7872 87.1232 88.9118 86.9612 88.9118Z" fill="white" fill-opacity="0.5"/>
</g>
</g>
<g filter="url(#filter1_b_173_762)">
<rect x="116.687" y="138.209" width="33.3487" height="33.1888" rx="16.5944" fill="#0C4C75" fill-opacity="0.1"/>
<path fill-rule="evenodd" clip-rule="evenodd" d="M133.123 161.854L133.122 160.943C132.923 160.815 133.117 160.925 132.821 160.799L132.477 160.673L132.377 159.442L131.023 159.465L131.002 158.259C131.488 157.998 131.682 158.098 132.354 158.122L132.353 156.947C132.607 156.843 132.649 156.869 132.808 156.808C133.165 156.671 132.906 156.825 133.12 156.651L133.11 155.254L128.212 155.261L128.236 154.008L133.118 154.033L133.16 152.929L138.337 152.818C138.25 152.693 138.316 152.794 138.196 152.508C138.06 152.186 138.189 152.376 138.032 152.106L138.033 152.767L128.219 152.733L128.236 151.501L137.958 151.517C137.924 151.497 137.869 151.483 137.842 151.477C137.219 151.335 133.716 151.433 133.077 151.442L133.161 150.274L128.205 150.252L128.265 149.001L133.21 148.987L133.168 147.775L128.664 147.769L128.655 146.54L126.872 146.557C126.727 148.201 126.681 161.271 127.027 161.85L133.123 161.854V161.854Z" fill="#FEFDFD" fill-opacity="0.1"/>
<path fill-rule="evenodd" clip-rule="evenodd" d="M133.168 147.775L133.21 148.987L138.029 149.053L138.014 150.253L133.161 150.274L133.077 151.442C133.716 151.433 137.219 151.335 137.842 151.477C137.87 151.483 137.924 151.497 137.959 151.518L138.032 152.106C138.189 152.376 138.06 152.186 138.196 152.508C138.316 152.794 138.25 152.693 138.337 152.818L133.16 152.929L133.118 154.034L133.11 155.254L133.12 156.651C132.906 156.825 133.165 156.671 132.808 156.808C132.649 156.869 132.607 156.843 132.353 156.947L132.354 158.122C131.682 158.099 131.488 157.998 131.002 158.259L132.348 158.154L132.446 156.969L133.799 156.927L133.803 158.175L135.202 158.206C135.303 159.842 135.288 159.334 133.845 159.48C133.83 159.648 133.836 159.924 133.821 160.06C133.82 160.068 133.784 160.327 133.782 160.336L133.66 160.716L132.477 160.673L132.821 160.799C133.117 160.925 132.923 160.815 133.122 160.943L133.123 161.854L136.661 161.817L136.663 161.767L136.567 159.453L139.268 159.521L139.404 159.402L139.414 146.495L137.548 146.449L137.266 147.689C136.803 147.761 137.472 147.686 136.962 147.73C136.087 147.807 134.414 147.644 133.168 147.775V147.775Z" fill="white" fill-opacity="0.5"/>
<path fill-rule="evenodd" clip-rule="evenodd" d="M137.635 145.342L141.044 145.305C141.365 146.171 141.263 161.335 141.114 163.173L133.158 163.169L133.179 162.012L136.652 161.991L136.661 161.816L133.123 161.853L127.028 161.85C126.681 161.271 126.727 148.2 126.873 146.555L128.656 146.539L128.67 145.225L124.972 145.307C124.775 147.078 124.742 162.57 125.08 163.163C125.615 163.615 139.78 163.051 141.295 163.497C141.568 162.327 141.59 145.638 141.216 145.306C141.013 145.126 140.729 145.142 140.28 145.136L137.515 145.247L137.635 145.342V145.342Z" fill="#FEECB1" fill-opacity="0.1"/>
<path fill-rule="evenodd" clip-rule="evenodd" d="M137.548 146.448L139.414 146.495L139.404 159.402L139.354 161.986L136.652 161.991L133.178 162.012L133.158 163.169L141.114 163.173C141.263 161.336 141.365 146.172 141.044 145.306L137.635 145.342L137.548 146.448V146.448Z" fill="#FBD33B" fill-opacity="0.1"/>
<path fill-rule="evenodd" clip-rule="evenodd" d="M133 144.016L135.877 143.992L135.785 145.226L133.203 145.246C133 146.022 132.992 147.015 133.168 147.774C134.414 147.643 136.087 147.805 136.962 147.729C137.471 147.685 136.803 147.76 137.266 147.688L137.548 146.448L137.635 145.342L137.515 145.247L136.022 145.217L135.95 143.882L130.452 143.944L130.375 144.022L133 144.016V144.016Z" fill="white" fill-opacity="0.5"/>
<path fill-rule="evenodd" clip-rule="evenodd" d="M128.669 145.226L128.655 146.54L128.664 147.769L133.168 147.775C132.992 147.016 133 146.023 133.203 145.247L130.361 145.212L130.375 144.023L130.452 143.944C129.967 144.364 130.248 144.462 130.122 145.208L128.669 145.226V145.226Z" fill="#0C4C75" fill-opacity="0.1"/>
<path fill-rule="evenodd" clip-rule="evenodd" d="M131.002 158.259L131.023 159.465L132.377 159.442L132.477 160.673L133.66 160.716L133.782 160.336C133.784 160.327 133.82 160.068 133.821 160.06C133.836 159.924 133.83 159.648 133.845 159.48C135.288 159.334 135.303 159.842 135.202 158.206L133.803 158.174L133.799 156.927L132.446 156.969L132.348 158.154L131.002 158.259V158.259Z" fill="#0C4C75" fill-opacity="0.1"/>
<path fill-rule="evenodd" clip-rule="evenodd" d="M133.056 151.529L137.788 151.565L137.807 152.628L133 152.663L133.056 151.529V151.529ZM138.032 152.105L137.958 151.517L128.236 151.5L128.219 152.732L138.033 152.766L138.032 152.105Z" fill="#0C4C75" fill-opacity="0.1"/>
<path fill-rule="evenodd" clip-rule="evenodd" d="M133.022 149.25C134.147 148.796 136.466 149.108 137.796 149.065L137.788 150.179L133.049 150.215L133.022 149.25V149.25ZM133.161 150.274L138.014 150.252L138.029 149.052L133.21 148.986L128.266 149L128.206 150.251L133.161 150.274Z" fill="#0C4C75" fill-opacity="0.1"/>
<path fill-rule="evenodd" clip-rule="evenodd" d="M133.11 155.254L133.118 154.032L128.236 154.007L128.212 155.261L133.11 155.254Z" fill="#0C4C75" fill-opacity="0.1"/>
<path fill-rule="evenodd" clip-rule="evenodd" d="M133.048 150.215L137.788 150.179L137.796 149.065C136.465 149.108 134.146 148.795 133.021 149.25L133.048 150.215V150.215Z" fill="#DA2C09" fill-opacity="0.1"/>
<path fill-rule="evenodd" clip-rule="evenodd" d="M133 152.663L137.807 152.629L137.788 151.565L133.056 151.529L133 152.663Z" fill="#DA2C09" fill-opacity="0.1"/>
<path fill-rule="evenodd" clip-rule="evenodd" d="M136.663 161.766L136.661 161.816L136.652 161.991L139.354 161.986L139.404 159.401L139.268 159.52C138.943 159.984 138.415 160.322 138.012 160.698C137.62 161.065 137.216 161.544 136.663 161.766Z" fill="white" fill-opacity="0.5"/>
<path fill-rule="evenodd" clip-rule="evenodd" d="M136.662 161.766C137.216 161.544 137.62 161.065 138.012 160.698C138.415 160.322 138.942 159.984 139.267 159.52L136.567 159.452L136.662 161.766V161.766Z" fill="#0C4C75" fill-opacity="0.1"/>
<path fill-rule="evenodd" clip-rule="evenodd" d="M133.203 145.245L135.785 145.225L135.877 143.992L133 144.016L133.203 145.245Z" fill="#087C6B" fill-opacity="0.1"/>
<path fill-rule="evenodd" clip-rule="evenodd" d="M133.203 145.247L133 144.016L130.376 144.022L130.362 145.213L133.203 145.247Z" fill="white" fill-opacity="0.5"/>
<path fill-rule="evenodd" clip-rule="evenodd" d="M135.877 143.992L133 144.016L133.203 145.245L135.785 145.225L135.877 143.992Z" fill="#0C4C75" fill-opacity="0.1"/>
<path fill-rule="evenodd" clip-rule="evenodd" d="M133.203 145.247L133 144.016L130.376 144.022L130.362 145.213L133.203 145.247Z" fill="white" fill-opacity="0.5"/>
<path fill-rule="evenodd" clip-rule="evenodd" d="M135.785 145.226L133.203 145.246C133 146.022 132.992 147.015 133.168 147.774C134.414 147.643 136.087 147.805 136.962 147.729C137.022 147.724 137.065 147.72 137.096 147.718C137.11 147.714 137.156 147.705 137.266 147.688L137.548 146.448L137.635 145.342L137.515 145.247L136.022 145.217L135.95 143.882L130.452 143.944L130.375 144.022L133 144.016L135.876 143.992L135.785 145.226V145.226Z" fill="white" fill-opacity="0.5"/>
<path fill-rule="evenodd" clip-rule="evenodd" d="M133.168 147.775C132.992 147.016 133 146.023 133.203 145.247L130.361 145.213L130.375 144.023L130.452 143.944C129.967 144.364 130.249 144.462 130.122 145.208L128.669 145.226L128.655 146.54L128.664 147.769L133.168 147.775V147.775Z" fill="white" fill-opacity="0.5"/>
<path fill-rule="evenodd" clip-rule="evenodd" d="M139.354 161.986L136.652 161.991L133.178 162.012L133.158 163.169L141.114 163.173C141.263 161.336 141.365 146.172 141.044 145.306L137.635 145.342L137.548 146.448L139.413 146.495L139.403 159.402L139.354 161.986V161.986Z" fill="white" fill-opacity="0.5"/>
<path fill-rule="evenodd" clip-rule="evenodd" d="M133.158 163.169L133.179 162.012L136.652 161.991L136.661 161.816L133.123 161.853L127.028 161.85C126.682 161.271 126.727 148.2 126.873 146.555L128.656 146.539L128.669 145.225L124.972 145.307C124.775 147.078 124.742 162.57 125.08 163.163C125.616 163.615 139.78 163.051 141.295 163.497C141.568 162.327 141.59 145.638 141.216 145.306C141.013 145.126 140.729 145.142 140.28 145.136L137.515 145.247L137.635 145.341L141.044 145.305C141.365 146.171 141.263 161.335 141.114 163.173L133.158 163.169V163.169Z" fill="white" fill-opacity="0.5"/>
<path fill-rule="evenodd" clip-rule="evenodd" d="M128.212 155.261L133.11 155.254L133.118 154.033L128.236 154.008L128.212 155.261Z" fill="#0C4C75" fill-opacity="0.1"/>
<path fill-rule="evenodd" clip-rule="evenodd" d="M128.219 152.732L138.033 152.766L138.032 152.105L137.958 151.517L128.236 151.5L128.219 152.732ZM133 152.663L133.056 151.529L137.788 151.565L137.807 152.628L133 152.663Z" fill="#0C4C75" fill-opacity="0.1"/>
<path fill-rule="evenodd" clip-rule="evenodd" d="M128.206 150.251L133.161 150.273L138.014 150.252L138.029 149.052L136.066 149.025C136.703 149.049 137.314 149.08 137.796 149.065L137.788 150.179L133.048 150.215L133.022 149.25C133.426 149.086 133.984 149.022 134.595 149.005L133.21 148.986L128.266 149L128.206 150.251V150.251Z" fill="#0C4C75" fill-opacity="0.1"/>
<path fill-rule="evenodd" clip-rule="evenodd" d="M137.788 151.565L133.056 151.529L133 152.663L137.807 152.629L137.788 151.565Z" fill="#0C4C75" fill-opacity="0.1"/>
<path fill-rule="evenodd" clip-rule="evenodd" d="M133.048 150.215L137.788 150.179L137.796 149.065C137.314 149.08 136.703 149.049 136.067 149.025C135.576 149.006 135.069 148.991 134.595 149.005C133.984 149.022 133.426 149.086 133.021 149.25L133.048 150.215V150.215Z" fill="#0C4C75" fill-opacity="0.1"/>
<path fill-rule="evenodd" clip-rule="evenodd" d="M133.799 156.927L132.446 156.969L132.354 158.082L132.351 158.121L132.348 158.154L131.002 158.259L131.023 159.465L132.377 159.442L132.477 160.673L133.66 160.716L133.782 160.336C133.784 160.327 133.82 160.068 133.821 160.06C133.836 159.924 133.83 159.648 133.845 159.48C135.288 159.334 135.303 159.842 135.202 158.206L133.803 158.175L133.799 156.927V156.927Z" fill="#0C4C75" fill-opacity="0.1"/>
</g>
<g filter="url(#filter2_b_173_762)">
<rect x="161.824" y="69.8398" width="33.1888" height="33.0296" rx="16.5148" fill="#0C4C75" fill-opacity="0.1"/>
<g clip-path="url(#clip1_173_762)">
<path d="M169.078 87.1112H175.347L176.333 82.4898C176.383 82.2551 176.593 82.0884 176.835 82.0958C177.076 82.1022 177.278 82.2789 177.316 82.5159L178.137 87.7236L178.649 86.0982C178.709 85.909 178.876 85.7731 179.074 85.7524C179.272 85.7317 179.463 85.83 179.561 86.0028L180.281 87.2727L187.313 87.2185C187.594 86.6739 187.801 86.0773 187.903 85.4184C188.188 83.5834 187.712 81.7372 186.629 80.4798C185.669 79.366 184.305 78.7773 182.684 78.7773C180.169 78.7773 178.739 80.4584 178.223 81.2166C177.706 80.4584 176.277 78.7773 173.761 78.7773C172.14 78.7773 170.776 79.366 169.817 80.4798C168.734 81.7371 168.257 83.5834 168.543 85.4184C168.638 86.034 168.825 86.5957 169.078 87.1112Z" fill="white" fill-opacity="0.5"/>
<path d="M179.994 88.2698C179.814 88.267 179.644 88.1743 179.555 88.0168L179.258 87.492L178.451 90.0501C178.385 90.2587 178.191 90.3986 177.974 90.3986C177.962 90.3986 177.95 90.3982 177.937 90.3973C177.706 90.3801 177.516 90.2065 177.48 89.9783L176.748 85.3347L176.241 87.712C176.192 87.9418 175.988 88.1062 175.752 88.1062H169.687C170.875 89.7191 172.713 90.8053 174.185 91.6734C174.906 92.0989 175.587 92.5008 176.06 92.8853C177.809 94.3052 177.969 95.0216 177.975 95.0514C177.991 95.1757 178.096 95.2738 178.223 95.2738C178.352 95.2738 178.459 95.1803 178.471 95.0523C178.472 95.0452 178.608 94.3288 180.386 92.8853C180.86 92.5008 181.541 92.0989 182.262 91.6734C183.698 90.8255 185.486 89.7698 186.676 88.2184L179.994 88.2698Z" fill="white" fill-opacity="0.5"/>
</g>
</g>
<g filter="url(#filter3_b_173_762)">
<rect x="17.1206" y="135.553" width="33.3487" height="33.1888" rx="16.5944" fill="#0C4C75" fill-opacity="0.1"/>
<path fill-rule="evenodd" clip-rule="evenodd" d="M30.176 145.007L31.4041 145.022L31.5073 146.555L32.7063 146.561L32.6866 147.944C32.2298 148.193 32.0281 148.08 31.4268 148.123L31.4303 149.623L30.1866 149.666L30.1795 148.148L28.9309 148.098L28.9858 146.55L30.17 146.536L30.176 145.007V145.007ZM24.3928 151.152L37.2852 151.178L37.2633 143.406L37.2453 143.302L35.5944 143.343L24.3403 143.433L24.3928 151.152Z" fill="#C7FEE9" fill-opacity="0.1"/>
<path fill-rule="evenodd" clip-rule="evenodd" d="M25.5731 157.901C25.5817 155.757 26.379 154.471 28.1081 154.355C29.6493 154.488 30.6202 155.771 30.5656 157.838C31.2564 157.085 35.8648 157.457 37.2743 157.511L37.3573 152.791L24.3444 152.88L24.3184 157.348C25.1739 157.873 25.0229 156.978 25.5731 157.901V157.901Z" fill="#B6D6C9" fill-opacity="0.1"/>
<path fill-rule="evenodd" clip-rule="evenodd" d="M37.2635 143.407L37.2855 151.177L24.3931 151.152L24.3531 151.317L37.2548 151.282L37.2583 152.775L24.3301 152.724L24.3446 152.88L37.3575 152.79L37.2745 157.51L37.3329 157.972C37.3378 155.642 38.0384 154.592 39.801 154.313C41.3756 154.682 42.1822 155.536 42.2785 157.685L43.5048 157.463L43.5915 152.884L38.5281 152.799L38.5117 145.476L41.9524 145.523L41.5096 143.358L38.9855 143.383L37.2635 143.407V143.407Z" fill="#95B6A5" fill-opacity="0.1"/>
<path fill-rule="evenodd" clip-rule="evenodd" d="M43.5915 152.884L41.9524 145.523L38.5117 145.476L38.5281 152.799L43.5915 152.884Z" fill="#C7FEE9" fill-opacity="0.1"/>
<path fill-rule="evenodd" clip-rule="evenodd" d="M24.3301 152.724L37.2583 152.774L37.2548 151.282L24.3531 151.316L24.3301 152.724Z" fill="white" fill-opacity="0.5"/>
<path fill-rule="evenodd" clip-rule="evenodd" d="M37.333 157.972C37.4291 159.294 38.395 160.347 39.2335 160.567L39.9847 160.584C40.3176 160.488 40.1214 160.583 40.3092 160.414L39.6651 160.395C39.8615 159.971 39.8103 159.365 39.7897 158.744C38.3627 158.689 38.3119 156.065 40.1373 156.227C40.096 156.191 40.0414 156.065 40.0213 156.106L39.8011 154.312C38.0385 154.592 37.3379 155.642 37.333 157.972V157.972Z" fill="white" fill-opacity="0.5"/>
<path fill-rule="evenodd" clip-rule="evenodd" d="M25.5732 157.9C25.7858 159.004 26.1685 159.57 26.6335 160.031C27.0646 160.458 28.2068 160.986 28.6919 160.382L27.9351 160.431C28.1731 159.764 28.1236 159.519 28.087 158.789C26.7545 158.53 26.4698 156.246 28.3352 156.207C27.9991 155.704 28.0699 155.268 28.1083 154.355C26.3791 154.47 25.5819 155.757 25.5732 157.9V157.9Z" fill="white" fill-opacity="0.5"/>
<path fill-rule="evenodd" clip-rule="evenodd" d="M28.3352 156.207C28.9223 156.517 29.1757 156.893 29.066 157.901C28.7757 158.595 28.7051 158.648 28.087 158.789C28.1236 159.519 28.1731 159.765 27.9351 160.432L28.6919 160.382C29.7507 160.348 30.4046 159.231 30.5658 157.837C30.6204 155.771 29.6495 154.488 28.1083 154.355C28.0699 155.268 27.9991 155.704 28.3352 156.207V156.207Z" fill="white" fill-opacity="0.5"/>
<path fill-rule="evenodd" clip-rule="evenodd" d="M40.1372 156.227C40.5183 156.573 40.899 156.771 40.7998 157.707C40.7169 158.49 40.2966 158.678 39.7896 158.744C39.8102 159.364 39.8614 159.971 39.665 160.394L40.3091 160.414C41.4304 160.409 42.1794 159.19 42.2785 157.684C42.1822 155.536 41.3756 154.681 39.801 154.312L40.0212 156.106C40.0414 156.065 40.0959 156.191 40.1372 156.227V156.227Z" fill="white" fill-opacity="0.5"/>
<path fill-rule="evenodd" clip-rule="evenodd" d="M30.1702 146.536L28.986 146.55L28.9312 148.098L30.1797 148.147L30.1868 149.666L31.4305 149.623L31.427 148.123C32.0283 148.08 32.23 148.193 32.6868 147.944L32.7066 146.561L31.5075 146.554L31.4044 145.021L30.1762 145.007L30.1702 146.536V146.536Z" fill="white" fill-opacity="0.5"/>
<path fill-rule="evenodd" clip-rule="evenodd" d="M28.0869 158.789C28.705 158.647 28.7756 158.594 29.0659 157.901C29.1756 156.893 28.9222 156.517 28.3351 156.207C26.4697 156.246 26.7543 158.529 28.0869 158.789V158.789Z" fill="#E3FEF4" fill-opacity="0.1"/>
<path fill-rule="evenodd" clip-rule="evenodd" d="M39.7896 158.744C40.2966 158.679 40.7169 158.491 40.7997 157.708C40.8989 156.771 40.5183 156.573 40.1372 156.227C38.3118 156.065 38.3626 158.689 39.7896 158.744V158.744Z" fill="#E3FEF4" fill-opacity="0.1"/>
<path fill-rule="evenodd" clip-rule="evenodd" d="M37.2451 143.303L37.3568 141.421L38.9222 141.32L38.8999 143.417L37.2451 143.303ZM35.5942 143.344L37.2451 143.303L37.2631 143.407L38.9851 143.383L39.0222 141.319C38.3674 141.144 36.3312 141.274 35.6501 141.395L35.5942 143.344V143.344Z" fill="#F38E6E" fill-opacity="0.1"/>
<path fill-rule="evenodd" clip-rule="evenodd" d="M37.2456 143.302L38.9004 143.417L38.9226 141.319L37.3573 141.421L37.2456 143.302Z" fill="white" fill-opacity="0.5"/>
<path fill-rule="evenodd" clip-rule="evenodd" d="M28.858 146.298L28.8032 147.847L30.0518 147.896L30.0588 149.414L31.3025 149.371L31.2992 147.871C31.9003 147.828 32.1022 147.941 32.559 147.692L32.5786 146.31L31.3796 146.303L31.2764 144.77L30.0483 144.755L30.0423 146.284L28.858 146.298V146.298Z" fill="white" fill-opacity="0.5"/>
<path fill-rule="evenodd" clip-rule="evenodd" d="M37.1267 151.031L24.2249 151.066L24.2021 152.473L37.1302 152.524L37.1267 151.031Z" fill="white" fill-opacity="0.5"/>
<path fill-rule="evenodd" clip-rule="evenodd" d="M37.1177 143.051L38.3725 143.138L38.7724 143.165L38.7728 143.132L38.7946 141.068L37.2293 141.17L37.1177 143.051Z" fill="white" fill-opacity="0.5"/>
<path fill-rule="evenodd" clip-rule="evenodd" d="M37.1178 143.052L37.2293 141.169L38.7947 141.067L38.7729 143.133L38.8576 143.132L38.8948 141.066C38.2399 140.892 36.2039 141.022 35.5228 141.142L35.4668 143.092L37.1178 143.052V143.052Z" fill="white" fill-opacity="0.5"/>
<path fill-rule="evenodd" clip-rule="evenodd" d="M38.3724 143.139L37.1354 143.156L37.1574 150.926L24.265 150.901L24.2249 151.066L37.1267 151.031L37.1302 152.523L24.2021 152.473L24.2165 152.629L37.2294 152.54L37.1465 157.26L37.2049 157.721C37.2095 155.391 37.9103 154.341 39.673 154.062C41.2475 154.431 42.0541 155.285 42.1503 157.434L43.3767 157.212L43.4634 152.633L38.4 152.548L38.3836 145.225L41.8243 145.272L41.3814 143.107L38.8574 143.132L38.7727 143.133L38.7723 143.166L38.3724 143.139V143.139Z" fill="white" fill-opacity="0.5"/>
<path fill-rule="evenodd" clip-rule="evenodd" d="M37.1573 150.925L37.1354 143.154L37.1175 143.05L35.4665 143.091L24.2124 143.18L24.265 150.9L37.1573 150.925V150.925ZM32.5785 146.309L32.5588 147.692C32.102 147.941 31.9001 147.828 31.2991 147.871L31.3023 149.37L30.0586 149.414L30.0516 147.895L28.8031 147.846L28.8579 146.298L30.0421 146.284L30.0481 144.755L31.2763 144.769L31.3794 146.302L32.5785 146.309V146.309Z" fill="#0C4C75" fill-opacity="0.1"/>
<path fill-rule="evenodd" clip-rule="evenodd" d="M37.2293 152.54L24.2164 152.63L24.1904 157.097C25.0459 157.621 24.8949 156.727 25.4451 157.649C25.4537 155.506 26.251 154.22 27.9801 154.104C29.5214 154.237 30.4922 155.52 30.4376 157.585C31.1284 156.834 35.7368 157.205 37.1464 157.259L37.2293 152.54V152.54Z" fill="white" fill-opacity="0.5"/>
<path fill-rule="evenodd" clip-rule="evenodd" d="M30.4377 157.586C30.4924 155.52 29.5216 154.237 27.9803 154.104C27.9419 155.017 27.8712 155.452 28.2072 155.956C28.7943 156.266 29.0477 156.642 28.9381 157.65C28.6477 158.344 28.5771 158.397 27.959 158.538C27.9956 159.268 28.0451 159.513 27.8071 160.18L28.5639 160.131C29.6227 160.097 30.2765 158.979 30.4377 157.586V157.586Z" fill="white" fill-opacity="0.5"/>
<path fill-rule="evenodd" clip-rule="evenodd" d="M40.6718 157.456C40.589 158.239 40.1687 158.426 39.6616 158.492C39.6823 159.113 39.7335 159.719 39.5371 160.143L40.1812 160.162C41.3024 160.158 42.0515 158.939 42.1505 157.433C42.0543 155.284 41.2476 154.43 39.6731 154.06L39.8933 155.854C39.9134 155.813 39.968 155.939 40.0093 155.975C40.3904 156.321 40.771 156.519 40.6718 157.456V157.456Z" fill="white" fill-opacity="0.5"/>
<path fill-rule="evenodd" clip-rule="evenodd" d="M27.959 158.538C26.6264 158.279 26.3418 155.995 28.2072 155.956C27.8711 155.452 27.9419 155.017 27.9803 154.104C26.2511 154.219 25.4539 155.506 25.4453 157.649C25.6579 158.753 26.0404 159.319 26.5055 159.78C26.9365 160.206 28.0788 160.735 28.5639 160.131L27.8071 160.18C28.0451 159.513 27.9955 159.268 27.959 158.538V158.538Z" fill="white" fill-opacity="0.5"/>
<path fill-rule="evenodd" clip-rule="evenodd" d="M37.2051 157.721C37.3011 159.043 38.267 160.095 39.1054 160.316L39.8568 160.332C40.1896 160.236 39.9934 160.331 40.1813 160.163L39.5372 160.143C39.7335 159.719 39.6824 159.113 39.6617 158.493C38.2347 158.437 38.1839 155.814 40.0094 155.976C39.9681 155.94 39.9135 155.813 39.8934 155.854L39.6732 154.06C37.9105 154.34 37.2097 155.39 37.2051 157.721Z" fill="white" fill-opacity="0.5"/>
<path fill-rule="evenodd" clip-rule="evenodd" d="M38.4001 152.548L43.4635 152.633L41.8244 145.271L38.3838 145.224L38.4001 152.548Z" fill="#0C4C75" fill-opacity="0.1"/>
<path fill-rule="evenodd" clip-rule="evenodd" d="M28.9381 157.65C29.0477 156.642 28.7943 156.266 28.2072 155.956C26.3418 155.995 26.6264 158.279 27.959 158.539C28.5771 158.397 28.6477 158.344 28.9381 157.65V157.65Z" fill="#0C4C75" fill-opacity="0.1"/>
<path fill-rule="evenodd" clip-rule="evenodd" d="M40.0093 155.977C38.1839 155.815 38.2347 158.437 39.6616 158.492C40.1687 158.426 40.589 158.239 40.6718 157.456C40.771 156.521 40.3904 156.323 40.0093 155.977V155.977Z" fill="#0C4C75" fill-opacity="0.1"/>
</g>
<g filter="url(#filter4_b_173_762)">
<rect x="126.644" y="1.47095" width="33.1888" height="33.1888" rx="16.5944" fill="#0F4C75" fill-opacity="0.1"/>
<rect x="126.144" y="0.970947" width="34.1888" height="34.1888" rx="17.0944" stroke="white" stroke-opacity="0.5" stroke-linecap="round" stroke-dasharray="4 4"/>
<g clip-path="url(#clip2_173_762)">
<path d="M152.192 18.5332V16.4392C152.192 14.8877 150.985 13.6296 149.496 13.6296C148.007 13.6296 146.8 14.8877 146.8 16.4392V21.7166C146.8 23.477 145.434 24.8999 143.745 24.8999C142.055 24.8999 140.69 23.477 140.69 21.7166V19.8596C143.374 19.4858 145.484 17.2671 145.554 14.5943V9.65049C145.554 9.18826 145.191 8.81045 144.747 8.81045C144.732 8.81045 142.892 8.81045 142.892 8.81045C142.85 8.38842 142.506 8.05481 142.094 8.05481C141.65 8.05481 141.287 8.43263 141.287 8.89485V10.4021C141.287 10.8643 141.65 11.2421 142.094 11.2421C142.51 11.2421 142.819 10.9085 142.888 10.4865H143.945V14.5943C143.945 16.604 142.136 18.2398 139.922 18.2398C137.712 18.2398 135.899 16.604 135.899 14.5943V10.4865H136.909C136.952 10.9085 137.295 11.2421 137.708 11.2421C138.151 11.2421 138.472 10.8643 138.514 10.4021V8.89485C138.514 8.43263 138.151 8.05481 137.708 8.05481C137.291 8.05481 136.948 8.38842 136.909 8.81045H135.096C134.66 8.81045 134.298 9.18826 134.298 9.64647V14.5903C134.298 17.2631 136.369 19.4858 139.085 19.8556V21.7166C139.085 24.3573 141.176 26.5357 143.71 26.5357C146.283 26.5357 148.335 24.3975 148.416 21.7166V16.4351C148.416 15.8081 148.898 15.3057 149.5 15.3057C150.102 15.3057 150.584 15.8081 150.584 16.4351V18.5011C149.947 18.8106 149.5 19.4858 149.5 20.2495C149.5 21.2985 150.306 22.1788 151.351 22.1788C152.358 22.1788 153.203 21.3387 153.203 20.2495C153.199 19.5099 152.798 18.8548 152.192 18.5332ZM151.347 20.5429C151.185 20.5429 151.066 20.4183 151.066 20.2495C151.066 20.0807 151.185 19.9561 151.347 19.9561C151.509 19.9561 151.629 20.1249 151.629 20.2495C151.629 20.4183 151.509 20.5429 151.347 20.5429Z" fill="white" fill-opacity="0.5"/>
</g>
</g>
<g filter="url(#filter5_b_173_762)">
<rect x="27.0771" y="1.47095" width="33.1888" height="33.0296" rx="16.5148" fill="#0C4C75" fill-opacity="0.1"/>
<path fill-rule="evenodd" clip-rule="evenodd" d="M39.24 19.5883L39.2501 17.0228L42.0465 16.9492L42.0426 16.0901L42.0819 13.9714L43.4812 13.9795C43.4105 12.9187 43.6923 11.5049 43.319 10.5419C44.1645 10.4148 46.628 10.3493 47.4778 10.4079C48.7986 10.4985 50.109 10.3876 51.4713 10.4945C51.1329 10.2657 51.0841 10.3473 50.5827 10.3463L49.0258 10.3473L47.7504 10.3151L46.3881 10.3302L40.4518 10.3423L39.2653 10.3453L37.4953 10.3342L35.9084 10.3281C33.3723 10.5984 33.7325 12.7604 33.7325 15.2642C33.7325 17.6662 33.729 20.0682 33.7329 22.4691C33.7403 27.3528 33.1765 26.7115 43.4163 26.656C43.5012 25.578 43.5886 24.0664 43.3295 23.043L42.054 22.9884L42.0173 20.0419C41.4802 20.0309 40.9795 20.0167 40.441 20.044C39.6835 20.0824 39.2984 20.3011 39.24 19.5883V19.5883Z" fill="white" fill-opacity="0.5"/>
<path fill-rule="evenodd" clip-rule="evenodd" d="M44.9501 20.0309L44.8595 23.0055L43.3298 23.0428C43.5889 24.0662 43.5015 25.5778 43.4166 26.6557C45.6662 26.6789 47.9202 26.6568 50.1704 26.6658C53.0991 26.678 53.1784 25.7613 53.1818 22.7897C53.1848 20.4412 53.1832 18.0927 53.1832 15.7443C53.1832 14.1299 53.7082 10.5815 51.4716 10.4947C50.1093 10.3879 48.7989 10.4987 47.4781 10.4081C46.6283 10.3496 44.1648 10.415 43.3193 10.5421C43.6926 11.5051 43.4108 12.9188 43.4815 13.9797L44.8316 13.9988L44.8839 16.919L47.6678 17.0057L47.6936 20.0177L44.9501 20.0309V20.0309Z" fill="white" fill-opacity="0.5"/>
<path fill-rule="evenodd" clip-rule="evenodd" d="M40.4517 10.3418L46.388 10.3298L46.2815 8.63208L40.5102 8.70267L40.4517 10.3418Z" fill="white" fill-opacity="0.5"/>
<path fill-rule="evenodd" clip-rule="evenodd" d="M37.4947 10.3334L37.5575 9.03125L35.8359 9.04944L35.9087 10.3273L37.4947 10.3334Z" fill="white" fill-opacity="0.5"/>
<path fill-rule="evenodd" clip-rule="evenodd" d="M48.9233 8.96924L49.0257 10.3464L50.5818 10.3454L50.6267 9.02274L48.9233 8.96924Z" fill="white" fill-opacity="0.5"/>
<path fill-rule="evenodd" clip-rule="evenodd" d="M40.4522 10.3429L40.5107 8.70264L46.2821 8.632L46.3885 10.3309L47.7508 10.3157L47.7255 8.59258L43.4324 8.53613L39.2104 8.54118L39.2657 10.346L40.4522 10.3429Z" fill="white" fill-opacity="0.5"/>
<path fill-rule="evenodd" clip-rule="evenodd" d="M39.2104 8.5419L43.4324 8.53685L43.3478 7.19202L39.2348 7.22427L39.2104 8.5419Z" fill="white" fill-opacity="0.5"/>
<path fill-rule="evenodd" clip-rule="evenodd" d="M43.3477 7.19219L43.4323 8.53609L47.7254 8.59251L47.6748 7.19116L43.3477 7.19219Z" fill="white" fill-opacity="0.5"/>
</g>
<g filter="url(#filter6_b_173_762)">
<rect x="211.848" y="5.45349" width="33.1888" height="33.1888" rx="16.5944" fill="#0F4C75" fill-opacity="0.1"/>
<rect x="211.348" y="4.95349" width="34.1888" height="34.1888" rx="17.0944" stroke="white" stroke-opacity="0.5" stroke-linecap="round" stroke-dasharray="4 4"/>
<g clip-path="url(#clip3_173_762)">
<path d="M219.102 22.8079H225.372L226.357 18.1643C226.407 17.9284 226.617 17.761 226.86 17.7684C227.101 17.7748 227.303 17.9524 227.34 18.1906L228.161 23.4233L228.673 21.7901C228.733 21.6 228.9 21.4634 229.098 21.4426C229.296 21.4218 229.488 21.5206 229.586 21.6942L230.305 22.9703L237.337 22.9158C237.618 22.3686 237.825 21.7691 237.928 21.107C238.213 19.2632 237.736 17.4081 236.653 16.1447C235.694 15.0255 234.33 14.434 232.709 14.434C230.193 14.434 228.764 16.1231 228.247 16.885C227.731 16.1231 226.301 14.434 223.786 14.434C222.165 14.434 220.801 15.0255 219.841 16.1447C218.758 17.408 218.282 19.2632 218.567 21.107C218.663 21.7256 218.849 22.29 219.102 22.8079Z" fill="white" fill-opacity="0.5"/>
<path d="M230.018 23.9721C229.839 23.9692 229.668 23.8761 229.579 23.7178L229.282 23.1905L228.475 25.761C228.41 25.9705 228.216 26.1112 227.999 26.1112C227.986 26.1112 227.974 26.1108 227.961 26.1098C227.73 26.0926 227.541 25.9181 227.505 25.6888L226.773 21.0228L226.266 23.4116C226.217 23.6425 226.013 23.8077 225.777 23.8077H219.711C220.899 25.4283 222.738 26.5198 224.209 27.392C224.93 27.8196 225.611 28.2234 226.085 28.6098C227.834 30.0365 227.994 30.7563 228 30.7863C228.015 30.9112 228.121 31.0099 228.247 31.0099C228.376 31.0099 228.484 30.9159 228.495 30.7872C228.497 30.7801 228.632 30.0603 230.41 28.6098C230.884 28.2234 231.565 27.8196 232.286 27.392C233.723 26.5401 235.511 25.4793 236.7 23.9204L230.018 23.9721Z" fill="white" fill-opacity="0.5"/>
</g>
</g>
<g filter="url(#filter7_b_173_762)">
<rect x="358.542" y="69.84" width="33.1888" height="33.1888" rx="16.5944" fill="#0F4C75" fill-opacity="0.1"/>
<rect x="358.042" y="69.34" width="34.1888" height="34.1888" rx="17.0944" stroke="white" stroke-opacity="0.5" stroke-linecap="round" stroke-dasharray="4 4"/>
</g>
<g filter="url(#filter8_b_173_762)">
<rect x="313.406" y="135.553" width="33.3487" height="33.1888" rx="16.5944" fill="#0C4C75" fill-opacity="0.1"/>
<path fill-rule="evenodd" clip-rule="evenodd" d="M326.461 145.007L327.689 145.022L327.792 146.555L328.991 146.561L328.972 147.944C328.515 148.193 328.313 148.08 327.712 148.123L327.715 149.623L326.472 149.666L326.465 148.148L325.216 148.098L325.271 146.55L326.455 146.536L326.461 145.007ZM320.678 151.152L333.57 151.178L333.548 143.406L333.53 143.302L331.88 143.343L320.625 143.433L320.678 151.152Z" fill="#C7FEE9" fill-opacity="0.1"/>
<path fill-rule="evenodd" clip-rule="evenodd" d="M321.858 157.901C321.867 155.757 322.664 154.471 324.393 154.355C325.935 154.488 326.905 155.771 326.851 157.838C327.542 157.085 332.15 157.457 333.559 157.511L333.642 152.791L320.63 152.88L320.604 157.348C321.459 157.873 321.308 156.978 321.858 157.901Z" fill="#B6D6C9" fill-opacity="0.1"/>
<path fill-rule="evenodd" clip-rule="evenodd" d="M333.548 143.407L333.57 151.177L320.678 151.152L320.638 151.317L333.539 151.282L333.543 152.775L320.615 152.724L320.629 152.88L333.642 152.79L333.559 157.51L333.618 157.972C333.622 155.642 334.323 154.592 336.086 154.313C337.66 154.682 338.467 155.536 338.563 157.685L339.789 157.463L339.876 152.884L334.813 152.799L334.796 145.476L338.237 145.523L337.794 143.358L335.27 143.383L333.548 143.407Z" fill="#95B6A5" fill-opacity="0.1"/>
<path fill-rule="evenodd" clip-rule="evenodd" d="M339.877 152.884L338.238 145.523L334.797 145.476L334.813 152.799L339.877 152.884Z" fill="#C7FEE9" fill-opacity="0.1"/>
<path fill-rule="evenodd" clip-rule="evenodd" d="M320.615 152.724L333.543 152.774L333.539 151.282L320.638 151.316L320.615 152.724Z" fill="white" fill-opacity="0.5"/>
<path fill-rule="evenodd" clip-rule="evenodd" d="M333.618 157.972C333.714 159.294 334.68 160.347 335.519 160.567L336.27 160.584C336.603 160.488 336.407 160.583 336.594 160.414L335.95 160.395C336.147 159.971 336.096 159.365 336.075 158.744C334.648 158.689 334.597 156.065 336.422 156.227C336.381 156.191 336.327 156.065 336.306 156.106L336.086 154.312C334.324 154.592 333.623 155.642 333.618 157.972Z" fill="white" fill-opacity="0.5"/>
<path fill-rule="evenodd" clip-rule="evenodd" d="M321.858 157.9C322.071 159.004 322.454 159.57 322.919 160.031C323.35 160.458 324.492 160.986 324.977 160.382L324.22 160.431C324.458 159.764 324.409 159.519 324.372 158.789C323.04 158.53 322.755 156.246 324.62 156.207C324.284 155.704 324.355 155.268 324.393 154.355C322.664 154.47 321.867 155.757 321.858 157.9Z" fill="white" fill-opacity="0.5"/>
<path fill-rule="evenodd" clip-rule="evenodd" d="M324.62 156.207C325.207 156.517 325.461 156.893 325.351 157.901C325.061 158.595 324.99 158.648 324.372 158.789C324.409 159.519 324.458 159.765 324.22 160.432L324.977 160.382C326.036 160.348 326.69 159.231 326.851 157.837C326.906 155.771 325.935 154.488 324.393 154.355C324.355 155.268 324.284 155.704 324.62 156.207Z" fill="white" fill-opacity="0.5"/>
<path fill-rule="evenodd" clip-rule="evenodd" d="M336.422 156.227C336.803 156.573 337.184 156.771 337.084 157.707C337.002 158.49 336.581 158.678 336.074 158.744C336.095 159.364 336.146 159.971 335.95 160.394L336.594 160.414C337.715 160.409 338.464 159.19 338.563 157.684C338.467 155.536 337.66 154.681 336.086 154.312L336.306 156.106C336.326 156.065 336.381 156.191 336.422 156.227Z" fill="white" fill-opacity="0.5"/>
<path fill-rule="evenodd" clip-rule="evenodd" d="M326.455 146.536L325.271 146.55L325.216 148.098L326.464 148.147L326.471 149.666L327.715 149.623L327.712 148.123C328.313 148.08 328.515 148.193 328.972 147.944L328.991 146.561L327.792 146.554L327.689 145.021L326.461 145.007L326.455 146.536Z" fill="white" fill-opacity="0.5"/>
<path fill-rule="evenodd" clip-rule="evenodd" d="M324.372 158.789C324.99 158.647 325.061 158.594 325.351 157.901C325.461 156.893 325.207 156.517 324.62 156.207C322.755 156.246 323.04 158.529 324.372 158.789Z" fill="#E3FEF4" fill-opacity="0.1"/>
<path fill-rule="evenodd" clip-rule="evenodd" d="M336.075 158.744C336.582 158.679 337.002 158.491 337.085 157.708C337.184 156.771 336.803 156.573 336.422 156.227C334.597 156.065 334.648 158.689 336.075 158.744Z" fill="#E3FEF4" fill-opacity="0.1"/>
<path fill-rule="evenodd" clip-rule="evenodd" d="M333.531 143.303L333.642 141.421L335.208 141.32L335.186 143.417L333.531 143.303ZM331.88 143.344L333.531 143.303L333.549 143.407L335.271 143.383L335.308 141.319C334.653 141.144 332.617 141.274 331.936 141.395L331.88 143.344Z" fill="#F38E6E" fill-opacity="0.1"/>
<path fill-rule="evenodd" clip-rule="evenodd" d="M333.531 143.302L335.186 143.417L335.208 141.319L333.642 141.421L333.531 143.302Z" fill="white" fill-opacity="0.5"/>
<path fill-rule="evenodd" clip-rule="evenodd" d="M325.143 146.298L325.088 147.847L326.336 147.896L326.343 149.414L327.587 149.371L327.584 147.871C328.185 147.828 328.387 147.941 328.844 147.692L328.863 146.31L327.664 146.303L327.561 144.77L326.333 144.755L326.327 146.284L325.143 146.298Z" fill="white" fill-opacity="0.5"/>
<path fill-rule="evenodd" clip-rule="evenodd" d="M333.412 151.031L320.51 151.066L320.487 152.473L333.415 152.524L333.412 151.031Z" fill="white" fill-opacity="0.5"/>
<path fill-rule="evenodd" clip-rule="evenodd" d="M333.402 143.051L334.657 143.138L335.057 143.165L335.057 143.132L335.079 141.068L333.514 141.17L333.402 143.051Z" fill="white" fill-opacity="0.5"/>
<path fill-rule="evenodd" clip-rule="evenodd" d="M333.403 143.052L333.514 141.169L335.08 141.067L335.058 143.133L335.143 143.132L335.18 141.066C334.525 140.892 332.489 141.022 331.808 141.142L331.752 143.092L333.403 143.052Z" fill="white" fill-opacity="0.5"/>
<path fill-rule="evenodd" clip-rule="evenodd" d="M334.658 143.139L333.421 143.156L333.443 150.926L320.55 150.901L320.51 151.066L333.412 151.031L333.415 152.523L320.487 152.473L320.502 152.629L333.515 152.54L333.432 157.26L333.49 157.721C333.495 155.391 334.195 154.341 335.958 154.062C337.533 154.431 338.339 155.285 338.435 157.434L339.662 157.212L339.749 152.633L334.685 152.548L334.669 145.225L338.109 145.272L337.667 143.107L335.143 143.132L335.058 143.133L335.057 143.166L334.658 143.139Z" fill="white" fill-opacity="0.5"/>
<path fill-rule="evenodd" clip-rule="evenodd" d="M333.442 150.925L333.421 143.154L333.403 143.05L331.752 143.091L320.498 143.18L320.55 150.9L333.442 150.925ZM328.864 146.309L328.844 147.692C328.387 147.941 328.185 147.828 327.584 147.871L327.587 149.37L326.344 149.414L326.337 147.895L325.088 147.846L325.143 146.298L326.327 146.284L326.333 144.755L327.561 144.769L327.665 146.302L328.864 146.309Z" fill="#0C4C75" fill-opacity="0.1"/>
<path fill-rule="evenodd" clip-rule="evenodd" d="M333.514 152.54L320.502 152.63L320.476 157.097C321.331 157.621 321.18 156.727 321.73 157.649C321.739 155.506 322.536 154.22 324.265 154.104C325.807 154.237 326.777 155.52 326.723 157.585C327.414 156.834 332.022 157.205 333.432 157.259L333.514 152.54Z" fill="white" fill-opacity="0.5"/>
<path fill-rule="evenodd" clip-rule="evenodd" d="M326.722 157.586C326.777 155.52 325.806 154.237 324.265 154.104C324.227 155.017 324.156 155.452 324.492 155.956C325.079 156.266 325.332 156.642 325.223 157.65C324.932 158.344 324.862 158.397 324.244 158.538C324.28 159.268 324.33 159.513 324.092 160.18L324.849 160.131C325.907 160.097 326.561 158.979 326.722 157.586Z" fill="white" fill-opacity="0.5"/>
<path fill-rule="evenodd" clip-rule="evenodd" d="M336.956 157.456C336.874 158.239 336.453 158.426 335.946 158.492C335.967 159.113 336.018 159.719 335.822 160.143L336.466 160.162C337.587 160.158 338.336 158.939 338.435 157.433C338.339 155.284 337.532 154.43 335.958 154.06L336.178 155.854C336.198 155.813 336.253 155.939 336.294 155.975C336.675 156.321 337.056 156.519 336.956 157.456Z" fill="white" fill-opacity="0.5"/>
<path fill-rule="evenodd" clip-rule="evenodd" d="M324.244 158.538C322.912 158.279 322.627 155.995 324.492 155.956C324.156 155.452 324.227 155.017 324.265 154.104C322.536 154.219 321.739 155.506 321.73 157.649C321.943 158.753 322.326 159.319 322.791 159.78C323.222 160.206 324.364 160.735 324.849 160.131L324.092 160.18C324.33 159.513 324.281 159.268 324.244 158.538Z" fill="white" fill-opacity="0.5"/>
<path fill-rule="evenodd" clip-rule="evenodd" d="M333.49 157.721C333.586 159.043 334.552 160.095 335.391 160.316L336.142 160.332C336.475 160.236 336.279 160.331 336.466 160.163L335.822 160.143C336.019 159.719 335.968 159.113 335.947 158.493C334.52 158.437 334.469 155.814 336.295 155.976C336.253 155.939 336.199 155.813 336.179 155.854L335.958 154.06C334.196 154.34 333.495 155.39 333.49 157.721Z" fill="white" fill-opacity="0.5"/>
<path fill-rule="evenodd" clip-rule="evenodd" d="M334.685 152.548L339.748 152.633L338.109 145.271L334.668 145.224L334.685 152.548Z" fill="#0C4C75" fill-opacity="0.1"/>
<path fill-rule="evenodd" clip-rule="evenodd" d="M325.223 157.65C325.333 156.642 325.079 156.266 324.492 155.956C322.627 155.995 322.912 158.279 324.244 158.539C324.862 158.397 324.933 158.344 325.223 157.65Z" fill="#0C4C75" fill-opacity="0.1"/>
<path fill-rule="evenodd" clip-rule="evenodd" d="M336.294 155.977C334.469 155.815 334.519 158.437 335.946 158.492C336.453 158.426 336.874 158.239 336.956 157.456C337.056 156.521 336.675 156.323 336.294 155.977Z" fill="#0C4C75" fill-opacity="0.1"/>
</g>
<g filter="url(#filter9_b_173_762)">
<rect x="213.839" y="136.881" width="33.3487" height="33.1888" rx="16.5944" fill="#0C4C75" fill-opacity="0.1"/>
<path fill-rule="evenodd" clip-rule="evenodd" d="M225.152 157.494C225.832 157.325 225.302 157.347 225.745 157.737C226.007 157.967 225.804 157.893 226.167 158.119L229.323 154.982C229.98 154.361 230.402 153.888 230.942 153.337C231.382 152.889 232.142 152.01 232.636 151.794L232.661 151.605C232.225 151.338 231.089 149.91 230.583 149.64C230.517 150.323 225.095 155.094 224.295 156.261C224.949 157.264 225.123 156.649 225.152 157.494Z" fill="#0C4C75" fill-opacity="0.1"/>
<path fill-rule="evenodd" clip-rule="evenodd" d="M226.166 158.118C226.353 158.382 226.379 158.339 226.555 158.549C226.916 158.979 226.764 158.573 226.821 159.149C227.191 159.038 227.735 159.761 228.026 160.047L234.129 153.946C234.571 153.589 234.199 153.752 234.654 153.716C234.365 153.253 233.987 152.992 233.644 152.667C233.268 152.312 233.071 151.93 232.636 151.794C232.142 152.01 231.382 152.889 230.942 153.337C230.402 153.888 229.98 154.361 229.323 154.981L226.166 158.118Z" fill="white" fill-opacity="0.5"/>
<path fill-rule="evenodd" clip-rule="evenodd" d="M237.744 150.306C237.885 151.232 237.015 151.347 236.775 150.888C236.477 150.321 237.069 149.685 237.744 150.306ZM232.72 149.949C232.107 149.568 231.979 149.073 231.281 148.714C230.92 148.953 230.506 149.185 230.583 149.641C231.089 149.911 232.225 151.34 232.66 151.606C233.05 151.188 233.056 151.173 233.451 150.892C234.029 151.216 233.997 151.369 234.41 151.836C234.473 150.962 234.684 151.554 235.341 150.514C235.363 150.544 235.387 150.558 235.394 150.612C235.613 152.211 237.717 153.008 238.677 151.577C239.165 150.849 239.042 149.857 238.473 149.323C237.511 148.419 236.686 149.215 236.355 148.789C236.336 148.771 236.134 148.614 236.105 148.596C236.09 148.585 236.031 148.595 236.019 148.556C236.007 148.518 235.961 148.535 235.932 148.524C235.415 148.836 235.034 149.282 234.618 149.685C234.188 150.1 233.93 150.524 233.451 150.777C233.115 150.474 232.946 150.338 232.72 149.949Z" fill="white" fill-opacity="0.5"/>
<path fill-rule="evenodd" clip-rule="evenodd" d="M234.054 147.505C233.769 147.694 233.423 147.635 233.246 147.343C232.992 146.924 233.236 146.755 233.478 146.604C234.106 146.213 234.614 147.135 234.054 147.505ZM232.72 149.947C232.946 150.337 233.115 150.472 233.451 150.776C233.93 150.523 234.188 150.099 234.618 149.684C235.034 149.281 235.415 148.835 235.932 148.523C235.713 147.961 235.91 148.396 235.555 147.973C235.082 147.471 235.882 146.857 235.006 145.873C233.261 143.914 230.04 147.409 233.448 148.79L233.728 148.921L232.72 149.947Z" fill="#0C4C75" fill-opacity="0.1"/>
<path fill-rule="evenodd" clip-rule="evenodd" d="M225.971 159.762C225.775 159.347 225.666 159.249 225.426 159.006C225.341 158.92 225.228 158.799 225.151 158.738C224.83 158.485 225.11 158.654 224.784 158.525C224.221 158.911 222.796 160.656 222.357 161.185L223.143 161.926C223.572 161.699 224.099 161.135 224.524 160.774C225.69 159.783 225.377 159.646 225.971 159.762Z" fill="#0C4C75" fill-opacity="0.1"/>
<path fill-rule="evenodd" clip-rule="evenodd" d="M238.689 145.849C239.057 146.804 238.42 147.026 237.605 146.93C237.129 146.924 237.628 146.676 236.846 147.449C236.828 147.467 236.774 147.55 236.76 147.525C236.746 147.5 236.703 147.58 236.67 147.601C236.785 147.689 236.81 147.652 236.898 147.801C237.016 148.001 236.968 147.92 237.016 148.135C237.752 147.831 238.447 148.658 239.503 147.511C240.187 146.768 240.072 145.784 239.553 145.004C239.005 145.015 239.404 144.831 238.997 145.239C238.638 145.598 238.795 145.378 238.689 145.849Z" fill="white" fill-opacity="0.5"/>
<path fill-rule="evenodd" clip-rule="evenodd" d="M236.293 147.224C236.515 147.424 236.406 147.373 236.67 147.602C236.703 147.58 236.746 147.5 236.76 147.526C236.774 147.551 236.828 147.468 236.847 147.449C237.628 146.676 237.129 146.924 237.605 146.93C237.38 146.552 237.286 146.428 237.39 145.787C237.983 145.443 238.171 145.401 238.689 145.849C238.796 145.379 238.638 145.599 238.997 145.239C239.404 144.831 239.005 145.015 239.553 145.004C239.015 144.343 237.927 144.025 237.025 144.614C235.948 145.317 236.218 146.163 236.293 147.224Z" fill="#0C4C75" fill-opacity="0.1"/>
<path fill-rule="evenodd" clip-rule="evenodd" d="M232.66 151.606L232.636 151.795C233.071 151.931 233.269 152.313 233.644 152.668C233.987 152.993 234.365 153.254 234.654 153.717C235.037 153.809 235.4 153.283 235.571 152.999C235.3 152.561 234.788 152 234.41 151.835C233.996 151.369 234.029 151.216 233.45 150.892C233.056 151.173 233.049 151.187 232.66 151.606Z" fill="#0C4C75" fill-opacity="0.1"/>
<path fill-rule="evenodd" clip-rule="evenodd" d="M224.784 158.525C225.11 158.653 224.831 158.485 225.151 158.738C225.228 158.799 225.341 158.92 225.427 159.006C225.667 159.248 225.775 159.347 225.972 159.761C226.395 159.73 226.537 159.409 226.822 159.149C226.765 158.574 226.916 158.98 226.555 158.549C226.379 158.34 226.353 158.382 226.166 158.119C225.804 157.893 226.007 157.967 225.745 157.737C225.302 157.347 225.832 157.325 225.152 157.494C224.829 157.789 224.806 157.772 224.555 158.164C224.78 158.589 224.342 158.171 224.784 158.525Z" fill="#0C4C75" fill-opacity="0.1"/>
<path fill-rule="evenodd" clip-rule="evenodd" d="M237.605 146.929C238.42 147.025 239.057 146.803 238.688 145.848C238.171 145.4 237.983 145.443 237.39 145.786C237.286 146.427 237.381 146.551 237.605 146.929Z" fill="#0C4C75" fill-opacity="0.1"/>
<path fill-rule="evenodd" clip-rule="evenodd" d="M235.554 147.972C235.91 148.396 235.712 147.96 235.932 148.523C235.96 148.534 236.007 148.516 236.019 148.554C236.031 148.594 236.089 148.584 236.105 148.595C236.134 148.613 236.336 148.77 236.355 148.788L237.016 148.134C236.967 147.92 237.015 148 236.897 147.8C236.809 147.652 236.784 147.688 236.67 147.601C236.406 147.372 236.514 147.423 236.293 147.223C235.96 147.345 235.676 147.647 235.554 147.972Z" fill="#0C4C75" fill-opacity="0.1"/>
<path fill-rule="evenodd" clip-rule="evenodd" d="M233.478 146.604C233.235 146.755 232.992 146.924 233.246 147.343C233.423 147.635 233.768 147.693 234.054 147.505C234.613 147.135 234.105 146.213 233.478 146.604Z" fill="#0C4C75" fill-opacity="0.1"/>
<path fill-rule="evenodd" clip-rule="evenodd" d="M237.744 150.305C237.068 149.685 236.478 150.321 236.775 150.887C237.015 151.345 237.885 151.231 237.744 150.305Z" fill="#0C4C75" fill-opacity="0.1"/>
<path fill-rule="evenodd" clip-rule="evenodd" d="M224.154 158.07C223.794 158.398 223.768 158.379 223.489 158.816C223.739 159.288 223.252 158.823 223.744 159.216C224.107 159.36 223.796 159.173 224.153 159.455C224.239 159.522 224.364 159.657 224.459 159.752C224.726 160.022 224.847 160.132 225.066 160.593C225.537 160.557 225.696 160.2 226.012 159.912C225.949 159.271 226.118 159.723 225.715 159.245C225.52 159.011 225.49 159.059 225.283 158.765C224.88 158.513 225.105 158.596 224.814 158.339C224.32 157.906 224.91 157.881 224.154 158.07Z" fill="white" fill-opacity="0.5"/>
<path fill-rule="evenodd" clip-rule="evenodd" d="M232.484 151.725C232.968 151.876 233.188 152.301 233.607 152.697C233.988 153.059 234.409 153.349 234.731 153.865C235.157 153.967 235.561 153.381 235.751 153.065C235.45 152.578 234.88 151.953 234.459 151.77C233.999 151.251 234.035 151.081 233.391 150.72C232.952 151.032 232.945 151.049 232.511 151.515L232.484 151.725Z" fill="white" fill-opacity="0.5"/>
<path fill-rule="evenodd" clip-rule="evenodd" d="M235.732 147.47C236.129 147.941 235.909 147.456 236.153 148.083C236.185 148.095 236.236 148.075 236.25 148.118C236.263 148.161 236.328 148.151 236.346 148.162C236.378 148.183 236.603 148.358 236.624 148.378L237.36 147.65C237.305 147.412 237.359 147.5 237.228 147.279C237.13 147.113 237.102 147.154 236.974 147.056C236.681 146.802 236.801 146.859 236.555 146.636C236.184 146.772 235.868 147.108 235.732 147.47Z" fill="white" fill-opacity="0.5"/>
<path fill-rule="evenodd" clip-rule="evenodd" d="M233.607 152.697C233.189 152.301 232.968 151.876 232.484 151.725C231.934 151.965 231.088 152.943 230.599 153.443C229.998 154.055 229.528 154.582 228.796 155.272L225.283 158.764C225.49 159.058 225.52 159.01 225.715 159.244C226.118 159.722 225.949 159.27 226.012 159.911C226.424 159.788 227.029 160.593 227.353 160.911L234.147 154.121C234.639 153.722 234.224 153.904 234.731 153.864C234.409 153.349 233.988 153.058 233.607 152.697Z" fill="white" fill-opacity="0.5"/>
<path fill-rule="evenodd" clip-rule="evenodd" d="M232.511 151.514C232.944 151.049 232.952 151.032 233.391 150.72C234.035 151.08 233.999 151.25 234.459 151.77C234.528 150.797 234.764 151.456 235.494 150.298C235.52 150.331 235.546 150.348 235.554 150.407C235.798 152.187 238.14 153.074 239.209 151.481C239.752 150.671 239.614 149.567 238.982 148.973C237.91 147.967 236.992 148.852 236.624 148.379C236.603 148.359 236.378 148.184 236.346 148.163C236.328 148.152 236.263 148.162 236.25 148.119C236.236 148.076 236.185 148.096 236.153 148.083C235.578 148.431 235.153 148.927 234.69 149.375C234.211 149.838 233.924 150.31 233.391 150.592C233.017 150.254 232.829 150.103 232.577 149.669C231.896 149.245 231.753 148.694 230.975 148.295C230.573 148.561 230.113 148.82 230.199 149.327C230.762 149.628 232.027 151.217 232.511 151.514ZM237.091 150.715C236.76 150.085 237.418 149.375 238.17 150.067C238.327 151.098 237.359 151.226 237.091 150.715Z" fill="white" fill-opacity="0.5"/>
<path fill-rule="evenodd" clip-rule="evenodd" d="M237.36 147.65C238.179 147.313 238.953 148.232 240.128 146.956C240.889 146.129 240.761 145.033 240.184 144.166C239.574 144.178 240.017 143.973 239.565 144.427C239.165 144.827 239.341 144.583 239.222 145.107C239.632 146.17 238.923 146.416 238.015 146.309C237.485 146.303 238.041 146.026 237.171 146.887C237.15 146.907 237.09 147 237.075 146.972C237.059 146.943 237.011 147.032 236.975 147.056C237.102 147.154 237.13 147.113 237.228 147.279C237.36 147.5 237.306 147.412 237.36 147.65Z" fill="white" fill-opacity="0.5"/>
<path fill-rule="evenodd" clip-rule="evenodd" d="M225.066 160.594C224.847 160.132 224.726 160.022 224.459 159.753C224.364 159.657 224.239 159.522 224.153 159.455C223.796 159.173 224.107 159.36 223.743 159.216C223.117 159.647 221.531 161.588 221.042 162.178L221.918 163.002C222.395 162.749 222.982 162.123 223.455 161.72C224.753 160.617 224.404 160.464 225.066 160.594Z" fill="white" fill-opacity="0.5"/>
<path fill-rule="evenodd" clip-rule="evenodd" d="M225.283 158.764L228.796 155.272C229.528 154.582 229.998 154.055 230.599 153.443C231.088 152.943 231.934 151.965 232.484 151.724L232.511 151.514C232.027 151.217 230.762 149.627 230.199 149.327C230.125 150.087 224.09 155.397 223.2 156.696C223.927 157.813 224.122 157.128 224.154 158.068C224.91 157.88 224.32 157.905 224.814 158.338C225.105 158.594 224.88 158.512 225.283 158.764Z" fill="white" fill-opacity="0.5"/>
<path fill-rule="evenodd" clip-rule="evenodd" d="M232.577 149.669C232.829 150.103 233.018 150.254 233.391 150.592C233.924 150.31 234.211 149.838 234.69 149.376C235.153 148.928 235.578 148.431 236.153 148.084C235.909 147.457 236.129 147.942 235.732 147.47C235.207 146.912 236.097 146.229 235.122 145.133C233.18 142.953 229.595 146.844 233.387 148.381L233.699 148.527L232.577 149.669ZM234.062 146.95C233.745 147.16 233.36 147.095 233.163 146.771C232.88 146.304 233.151 146.116 233.421 145.947C234.12 145.511 234.686 146.539 234.062 146.95Z" fill="white" fill-opacity="0.5"/>
<path fill-rule="evenodd" clip-rule="evenodd" d="M237.37 143.732C236.171 144.514 236.472 145.455 236.555 146.636C236.802 146.859 236.681 146.802 236.975 147.057C237.011 147.033 237.059 146.944 237.075 146.972C237.09 147.001 237.15 146.908 237.171 146.888C238.042 146.027 237.485 146.303 238.015 146.309C237.766 145.889 237.66 145.75 237.776 145.037C238.437 144.655 238.646 144.607 239.222 145.107C239.341 144.583 239.165 144.828 239.565 144.427C240.017 143.973 239.574 144.178 240.184 144.166C239.585 143.43 238.374 143.076 237.37 143.732Z" fill="white" fill-opacity="0.5"/>
<path fill-rule="evenodd" clip-rule="evenodd" d="M234.062 146.949C234.685 146.538 234.12 145.511 233.421 145.946C233.152 146.115 232.881 146.303 233.163 146.77C233.36 147.094 233.745 147.159 234.062 146.949Z" fill="#0C4C75" fill-opacity="0.1"/>
<path fill-rule="evenodd" clip-rule="evenodd" d="M237.776 145.037C237.661 145.749 237.766 145.888 238.015 146.308C238.922 146.415 239.632 146.169 239.222 145.106C238.646 144.607 238.437 144.654 237.776 145.037Z" fill="#0C4C75" fill-opacity="0.1"/>
<path fill-rule="evenodd" clip-rule="evenodd" d="M238.17 150.067C237.418 149.376 236.76 150.085 237.091 150.715C237.359 151.226 238.327 151.098 238.17 150.067Z" fill="#0C4C75" fill-opacity="0.1"/>
</g>
<g filter="url(#filter10_b_173_762)">
<rect x="258.976" y="69.84" width="33.1888" height="33.0296" rx="16.5148" fill="#0C4C75" fill-opacity="0.1"/>
<path fill-rule="evenodd" clip-rule="evenodd" d="M271.139 87.9568L271.149 85.3913L273.946 85.3177L273.942 84.4586L273.981 82.34L275.381 82.3481C275.31 81.2872 275.592 79.8735 275.218 78.9104C276.064 78.7834 278.527 78.7179 279.377 78.7764C280.698 78.8671 282.008 78.7562 283.371 78.863C283.032 78.6343 282.984 78.7158 282.482 78.7148L280.925 78.7158L279.65 78.6836L278.287 78.6987L272.351 78.7108L271.165 78.7139L269.395 78.7027L267.808 78.6967C265.272 78.967 265.632 81.129 265.632 83.6327C265.632 86.0348 265.628 88.4367 265.632 90.8376C265.64 95.7213 265.076 95.08 275.316 95.0245C275.401 93.9465 275.488 92.4349 275.229 91.4115L273.953 91.357L273.917 88.4105C273.38 88.3994 272.879 88.3853 272.34 88.4125C271.583 88.4509 271.198 88.6697 271.139 87.9568Z" fill="white" fill-opacity="0.5"/>
<path fill-rule="evenodd" clip-rule="evenodd" d="M276.849 88.3996L276.758 91.3742L275.229 91.4116C275.488 92.435 275.4 93.9466 275.316 95.0245C277.565 95.0477 279.819 95.0255 282.069 95.0346C284.998 95.0467 285.077 94.1301 285.081 91.1585C285.084 88.81 285.082 86.4615 285.082 84.113C285.082 82.4987 285.607 78.9502 283.37 78.8635C282.008 78.7566 280.698 78.8675 279.377 78.7769C278.527 78.7183 276.064 78.7838 275.218 78.9108C275.591 79.8739 275.31 81.2876 275.38 82.3484L276.731 82.3676L276.783 85.2878L279.567 85.3745L279.592 88.3865L276.849 88.3996Z" fill="white" fill-opacity="0.5"/>
<path fill-rule="evenodd" clip-rule="evenodd" d="M272.351 78.7107L278.287 78.6987L278.181 77.001L272.41 77.0716L272.351 78.7107Z" fill="white" fill-opacity="0.5"/>
<path fill-rule="evenodd" clip-rule="evenodd" d="M269.394 78.7021L269.456 77.4L267.735 77.4182L267.808 78.6961L269.394 78.7021Z" fill="white" fill-opacity="0.5"/>
<path fill-rule="evenodd" clip-rule="evenodd" d="M280.823 77.338L280.925 78.7152L282.481 78.7141L282.526 77.3915L280.823 77.338Z" fill="white" fill-opacity="0.5"/>
<path fill-rule="evenodd" clip-rule="evenodd" d="M272.351 78.7117L272.41 77.0714L278.181 77.0008L278.287 78.6997L279.65 78.6845L279.624 76.9614L275.331 76.9049L271.109 76.91L271.165 78.7148L272.351 78.7117Z" fill="white" fill-opacity="0.5"/>
<path fill-rule="evenodd" clip-rule="evenodd" d="M271.109 76.9108L275.331 76.9058L275.247 75.5609L271.134 75.5932L271.109 76.9108Z" fill="white" fill-opacity="0.5"/>
<path fill-rule="evenodd" clip-rule="evenodd" d="M275.247 75.561L275.331 76.9049L279.624 76.9613L279.574 75.5599L275.247 75.561Z" fill="white" fill-opacity="0.5"/>
</g>
<g filter="url(#filter11_b_173_762)">
<rect x="323.362" y="1.47095" width="33.1888" height="33.0296" rx="16.5148" fill="#0C4C75" fill-opacity="0.1"/>
<path fill-rule="evenodd" clip-rule="evenodd" d="M335.526 19.5884L335.536 17.0229L338.332 16.9493L338.328 16.0902L338.368 13.9715L339.767 13.9797C339.696 12.9188 339.978 11.5051 339.605 10.542C340.45 10.415 342.914 10.3495 343.763 10.408C345.084 10.4986 346.395 10.3878 347.757 10.4946C347.419 10.2659 347.37 10.3474 346.868 10.3464L345.311 10.3474L344.036 10.3152L342.674 10.3303L336.737 10.3424L335.551 10.3454L333.781 10.3343L332.194 10.3283C329.658 10.5986 330.018 12.7606 330.018 15.2643C330.018 17.6664 330.015 20.0683 330.019 22.4692C330.026 27.3529 329.462 26.7116 339.702 26.6561C339.787 25.5781 339.874 24.0665 339.615 23.0431L338.34 22.9886L338.303 20.0421C337.766 20.031 337.265 20.0168 336.727 20.0441C335.969 20.0825 335.584 20.3013 335.526 19.5884Z" fill="white" fill-opacity="0.5"/>
<path fill-rule="evenodd" clip-rule="evenodd" d="M341.236 20.031L341.145 23.0056L339.615 23.0429C339.875 24.0663 339.787 25.5779 339.702 26.6559C341.952 26.679 344.206 26.6569 346.456 26.6659C349.385 26.6781 349.464 25.7615 349.467 22.7898C349.47 20.4413 349.469 18.0928 349.469 15.7444C349.469 14.13 349.994 10.5816 347.757 10.4948C346.395 10.388 345.085 10.4989 343.764 10.4082C342.914 10.3497 340.45 10.4152 339.605 10.5422C339.978 11.5052 339.696 12.9189 339.767 13.9798L341.117 13.9989L341.17 16.9192L343.953 17.0058L343.979 20.0178L341.236 20.031Z" fill="white" fill-opacity="0.5"/>
<path fill-rule="evenodd" clip-rule="evenodd" d="M336.737 10.3419L342.674 10.3299L342.567 8.6322L336.796 8.70279L336.737 10.3419Z" fill="white" fill-opacity="0.5"/>
<path fill-rule="evenodd" clip-rule="evenodd" d="M333.78 10.3334L333.843 9.03125L332.122 9.04944L332.194 10.3273L333.78 10.3334Z" fill="white" fill-opacity="0.5"/>
<path fill-rule="evenodd" clip-rule="evenodd" d="M345.209 8.96924L345.311 10.3464L346.867 10.3454L346.912 9.02274L345.209 8.96924Z" fill="white" fill-opacity="0.5"/>
<path fill-rule="evenodd" clip-rule="evenodd" d="M336.737 10.3429L336.796 8.70264L342.567 8.632L342.674 10.3309L344.036 10.3157L344.011 8.59258L339.718 8.53613L335.496 8.54118L335.551 10.346L336.737 10.3429Z" fill="white" fill-opacity="0.5"/>
<path fill-rule="evenodd" clip-rule="evenodd" d="M335.496 8.5419L339.718 8.53685L339.633 7.19202L335.52 7.22427L335.496 8.5419Z" fill="white" fill-opacity="0.5"/>
<path fill-rule="evenodd" clip-rule="evenodd" d="M339.633 7.19231L339.718 8.53621L344.011 8.59263L343.96 7.19128L339.633 7.19231Z" fill="white" fill-opacity="0.5"/>
</g>
<defs>
<filter id="filter0_b_173_762" x="16.2573" y="23.8398" width="125.189" height="125.189" filterUnits="userSpaceOnUse" color-interpolation-filters="sRGB">
<feFlood flood-opacity="0" result="BackgroundImageFix"/>
<feGaussianBlur in="BackgroundImage" stdDeviation="22.5"/>
<feComposite in2="SourceAlpha" operator="in" result="effect1_backgroundBlur_173_762"/>
<feBlend mode="normal" in="SourceGraphic" in2="effect1_backgroundBlur_173_762" result="shape"/>
</filter>
<filter id="filter1_b_173_762" x="101.687" y="123.209" width="63.3486" height="63.1888" filterUnits="userSpaceOnUse" color-interpolation-filters="sRGB">
<feFlood flood-opacity="0" result="BackgroundImageFix"/>
<feGaussianBlur in="BackgroundImage" stdDeviation="7.5"/>
<feComposite in2="SourceAlpha" operator="in" result="effect1_backgroundBlur_173_762"/>
<feBlend mode="normal" in="SourceGraphic" in2="effect1_backgroundBlur_173_762" result="shape"/>
</filter>
<filter id="filter2_b_173_762" x="146.824" y="54.8398" width="63.189" height="63.0297" filterUnits="userSpaceOnUse" color-interpolation-filters="sRGB">
<feFlood flood-opacity="0" result="BackgroundImageFix"/>
<feGaussianBlur in="BackgroundImage" stdDeviation="7.5"/>
<feComposite in2="SourceAlpha" operator="in" result="effect1_backgroundBlur_173_762"/>
<feBlend mode="normal" in="SourceGraphic" in2="effect1_backgroundBlur_173_762" result="shape"/>
</filter>
<filter id="filter3_b_173_762" x="2.12061" y="120.553" width="63.3486" height="63.1888" filterUnits="userSpaceOnUse" color-interpolation-filters="sRGB">
<feFlood flood-opacity="0" result="BackgroundImageFix"/>
<feGaussianBlur in="BackgroundImage" stdDeviation="7.5"/>
<feComposite in2="SourceAlpha" operator="in" result="effect1_backgroundBlur_173_762"/>
<feBlend mode="normal" in="SourceGraphic" in2="effect1_backgroundBlur_173_762" result="shape"/>
</filter>
<filter id="filter4_b_173_762" x="80.6436" y="-44.5291" width="125.189" height="125.189" filterUnits="userSpaceOnUse" color-interpolation-filters="sRGB">
<feFlood flood-opacity="0" result="BackgroundImageFix"/>
<feGaussianBlur in="BackgroundImage" stdDeviation="22.5"/>
<feComposite in2="SourceAlpha" operator="in" result="effect1_backgroundBlur_173_762"/>
<feBlend mode="normal" in="SourceGraphic" in2="effect1_backgroundBlur_173_762" result="shape"/>
</filter>
<filter id="filter5_b_173_762" x="12.0771" y="-13.5291" width="63.189" height="63.0297" filterUnits="userSpaceOnUse" color-interpolation-filters="sRGB">
<feFlood flood-opacity="0" result="BackgroundImageFix"/>
<feGaussianBlur in="BackgroundImage" stdDeviation="7.5"/>
<feComposite in2="SourceAlpha" operator="in" result="effect1_backgroundBlur_173_762"/>
<feBlend mode="normal" in="SourceGraphic" in2="effect1_backgroundBlur_173_762" result="shape"/>
</filter>
<filter id="filter6_b_173_762" x="165.848" y="-40.5465" width="125.189" height="125.189" filterUnits="userSpaceOnUse" color-interpolation-filters="sRGB">
<feFlood flood-opacity="0" result="BackgroundImageFix"/>
<feGaussianBlur in="BackgroundImage" stdDeviation="22.5"/>
<feComposite in2="SourceAlpha" operator="in" result="effect1_backgroundBlur_173_762"/>
<feBlend mode="normal" in="SourceGraphic" in2="effect1_backgroundBlur_173_762" result="shape"/>
</filter>
<filter id="filter7_b_173_762" x="312.542" y="23.84" width="125.189" height="125.189" filterUnits="userSpaceOnUse" color-interpolation-filters="sRGB">
<feFlood flood-opacity="0" result="BackgroundImageFix"/>
<feGaussianBlur in="BackgroundImage" stdDeviation="22.5"/>
<feComposite in2="SourceAlpha" operator="in" result="effect1_backgroundBlur_173_762"/>
<feBlend mode="normal" in="SourceGraphic" in2="effect1_backgroundBlur_173_762" result="shape"/>
</filter>
<filter id="filter8_b_173_762" x="298.406" y="120.553" width="63.3486" height="63.1888" filterUnits="userSpaceOnUse" color-interpolation-filters="sRGB">
<feFlood flood-opacity="0" result="BackgroundImageFix"/>
<feGaussianBlur in="BackgroundImage" stdDeviation="7.5"/>
<feComposite in2="SourceAlpha" operator="in" result="effect1_backgroundBlur_173_762"/>
<feBlend mode="normal" in="SourceGraphic" in2="effect1_backgroundBlur_173_762" result="shape"/>
</filter>
<filter id="filter9_b_173_762" x="198.839" y="121.881" width="63.3486" height="63.1888" filterUnits="userSpaceOnUse" color-interpolation-filters="sRGB">
<feFlood flood-opacity="0" result="BackgroundImageFix"/>
<feGaussianBlur in="BackgroundImage" stdDeviation="7.5"/>
<feComposite in2="SourceAlpha" operator="in" result="effect1_backgroundBlur_173_762"/>
<feBlend mode="normal" in="SourceGraphic" in2="effect1_backgroundBlur_173_762" result="shape"/>
</filter>
<filter id="filter10_b_173_762" x="243.976" y="54.84" width="63.189" height="63.0297" filterUnits="userSpaceOnUse" color-interpolation-filters="sRGB">
<feFlood flood-opacity="0" result="BackgroundImageFix"/>
<feGaussianBlur in="BackgroundImage" stdDeviation="7.5"/>
<feComposite in2="SourceAlpha" operator="in" result="effect1_backgroundBlur_173_762"/>
<feBlend mode="normal" in="SourceGraphic" in2="effect1_backgroundBlur_173_762" result="shape"/>
</filter>
<filter id="filter11_b_173_762" x="308.362" y="-13.5291" width="63.189" height="63.0297" filterUnits="userSpaceOnUse" color-interpolation-filters="sRGB">
<feFlood flood-opacity="0" result="BackgroundImageFix"/>
<feGaussianBlur in="BackgroundImage" stdDeviation="7.5"/>
<feComposite in2="SourceAlpha" operator="in" result="effect1_backgroundBlur_173_762"/>
<feBlend mode="normal" in="SourceGraphic" in2="effect1_backgroundBlur_173_762" result="shape"/>
</filter>
<clipPath id="clip0_173_762">
<rect width="18.905" height="19.6988" fill="white" transform="translate(69.9116 75.8151)"/>
</clipPath>
<clipPath id="clip1_173_762">
<rect x="168.461" y="75.6687" width="19.5228" height="19.4292" rx="9.71459" fill="white"/>
</clipPath>
<clipPath id="clip2_173_762">
<rect width="18.905" height="19.6988" fill="white" transform="translate(134.298 7.44617)"/>
</clipPath>
<clipPath id="clip3_173_762">
<rect width="19.5228" height="19.5228" fill="white" transform="translate(218.486 11.3103)"/>
</clipPath>
</defs>
</svg>
