<svg width="52" height="52" viewBox="0 0 52 52" fill="none" xmlns="http://www.w3.org/2000/svg">
<g filter="url(#filter0_b_148_117)">
<rect x="0.5" y="0.5" width="51" height="51" rx="20.5" fill="#0F4C75" fill-opacity="0.3" stroke="white" stroke-linecap="round" stroke-dasharray="4 4"/>
<g clip-path="url(#clip0_148_117)">
<path d="M39.4902 26.7054V23.5506C39.4902 21.2133 37.6713 19.318 35.4281 19.318C33.185 19.318 31.3661 21.2133 31.3661 23.5506V31.5012C31.3661 34.1534 29.3089 36.297 26.7635 36.297C24.2182 36.297 22.161 34.1534 22.161 31.5012V28.7036C26.2056 28.1405 29.3844 24.798 29.489 20.7712V13.3233C29.489 12.6269 28.9428 12.0577 28.2745 12.0577C28.2512 12.0577 25.4792 12.0577 25.4792 12.0577C25.4153 11.4219 24.8981 10.9193 24.2763 10.9193C23.608 10.9193 23.0618 11.4885 23.0618 12.1849V14.4556C23.0618 15.1519 23.608 15.7211 24.2763 15.7211C24.9039 15.7211 25.3688 15.2186 25.4734 14.5828H27.0657V20.7712C27.0657 23.7989 24.3402 26.2634 21.0046 26.2634C17.6747 26.2634 14.9434 23.7989 14.9434 20.7712V14.5828H16.466C16.5299 15.2186 17.0471 15.7211 17.6689 15.7211C18.3372 15.7211 18.8195 15.1519 18.8835 14.4556V12.1849C18.8835 11.4885 18.3372 10.9193 17.6689 10.9193C17.0413 10.9193 16.5241 11.4219 16.466 12.0577H13.7347C13.078 12.0577 12.5317 12.6269 12.5317 13.3172V20.7652C12.5317 24.7919 15.6524 28.1405 19.7435 28.6976V31.5012C19.7435 35.4795 22.8932 38.7614 26.7112 38.7614C30.5873 38.7614 33.6789 35.54 33.801 31.5012V23.5446C33.801 22.5999 34.5274 21.843 35.4339 21.843C36.3405 21.843 37.0669 22.5999 37.0669 23.5446V26.657C36.108 27.1232 35.4339 28.1405 35.4339 29.291C35.4339 30.8714 36.6485 32.1975 38.2233 32.1975C39.7401 32.1975 41.0128 30.932 41.0128 29.291C41.0069 28.1768 40.4026 27.1898 39.4902 26.7054ZM38.2175 29.733C37.9735 29.733 37.7933 29.5453 37.7933 29.291C37.7933 29.0367 37.9735 28.849 38.2175 28.849C38.4616 28.849 38.6418 29.1033 38.6418 29.291C38.6418 29.5453 38.4616 29.733 38.2175 29.733Z" fill="white"/>
</g>
</g>
<defs>
<filter id="filter0_b_148_117" x="-45" y="-45" width="142" height="142" filterUnits="userSpaceOnUse" color-interpolation-filters="sRGB">
<feFlood flood-opacity="0" result="BackgroundImageFix"/>
<feGaussianBlur in="BackgroundImage" stdDeviation="22.5"/>
<feComposite in2="SourceAlpha" operator="in" result="effect1_backgroundBlur_148_117"/>
<feBlend mode="normal" in="SourceGraphic" in2="effect1_backgroundBlur_148_117" result="shape"/>
</filter>
<clipPath id="clip0_148_117">
<rect width="28.481" height="29.6769" fill="white" transform="translate(12.5317 10.002)"/>
</clipPath>
</defs>
</svg>
