<svg width="58" height="63" viewBox="0 0 58 63" fill="none" xmlns="http://www.w3.org/2000/svg">
<path fill-rule="evenodd" clip-rule="evenodd" d="M29.324 34.8874C37.9971 34.8874 45.0281 27.7744 45.0281 19.0001C45.0281 10.2259 37.9971 3.11288 29.324 3.11288C20.6509 3.11288 13.6199 10.2259 13.6199 19.0001C13.6199 27.7744 20.6509 34.8874 29.324 34.8874ZM29.324 37.776C39.574 37.776 47.8834 29.3698 47.8834 19.0001C47.8834 8.63053 39.574 0.224289 29.324 0.224289C19.074 0.224289 10.7646 8.63053 10.7646 19.0001C10.7646 29.3698 19.074 37.776 29.324 37.776Z" fill="white"/>
<path fill-rule="evenodd" clip-rule="evenodd" d="M36.0619 30.6325C38.0169 27.7755 39.3175 23.6717 39.3175 19.0001C39.3175 14.3286 38.0169 10.2248 36.0619 7.36782C34.099 4.49955 31.6702 3.11288 29.324 3.11288C26.9777 3.11288 24.549 4.49955 22.5861 7.36782C20.6311 10.2248 19.3305 14.3286 19.3305 19.0001C19.3305 23.6717 20.6311 27.7755 22.5861 30.6325C24.549 33.5007 26.9777 34.8874 29.324 34.8874C31.6702 34.8874 34.099 33.5007 36.0619 30.6325ZM29.324 37.776C36.4201 37.776 42.1728 29.3698 42.1728 19.0001C42.1728 8.63053 36.4201 0.224289 29.324 0.224289C22.2278 0.224289 16.4752 8.63053 16.4752 19.0001C16.4752 29.3698 22.2278 37.776 29.324 37.776Z" fill="white"/>
<path fill-rule="evenodd" clip-rule="evenodd" d="M27.8964 36.3317V1.66858H30.7516V36.3317H27.8964Z" fill="white"/>
<path fill-rule="evenodd" clip-rule="evenodd" d="M12.1923 17.5558H46.4557V20.4444H12.1923V17.5558Z" fill="white"/>
<path fill-rule="evenodd" clip-rule="evenodd" d="M15.0476 8.89008H43.6005V11.7787H15.0476V8.89008Z" fill="white"/>
<path fill-rule="evenodd" clip-rule="evenodd" d="M15.0476 26.2216H43.6005V29.1102H15.0476V26.2216Z" fill="white"/>
<path d="M26.4489 61.0464H27.8765V62.4907H26.4489V61.0464ZM26.4489 53.8249V52.3806H27.8765V53.8249H26.4489ZM10.7448 61.0464V62.4907H9.31716V61.0464H10.7448ZM10.7448 53.8249H9.31716V52.3806H10.7448V53.8249ZM11.4182 53.8249L12.5867 52.9953L14.1642 55.2692H11.4182V53.8249ZM8.71467 50.622L9.74945 49.627L8.71467 50.622ZM5.13573 46.0705L6.36615 45.3379L5.13573 46.0705ZM4.28157 44.6537L5.49419 43.8914L4.28157 44.6537ZM2.20563 40.0521L3.62422 39.8897L2.20563 40.0521ZM2.44705 24.9752L1.09684 24.506L2.44705 24.9752ZM7.59607 26.1486L6.23083 26.571L7.59607 26.1486ZM8.52201 32.7497L7.09836 32.8579L8.52201 32.7497ZM9.38754 38.0553L10.6287 37.3417L9.38754 38.0553ZM13.9172 44.7148L15.1903 44.0613L12.7676 45.5712L13.9172 44.7148ZM10.9357 38.7698L12.1819 38.0651L12.1959 38.0904L12.2089 38.1164L10.9357 38.7698ZM10.72 36.3847L9.30917 36.1637L10.72 36.3847ZM15.9253 37.674L16.9579 36.6765L17.0013 36.7225L17.0406 36.7722L15.9253 37.674ZM21.1433 44.2779L22.2585 43.3763L22.2744 43.3963L22.2896 43.417L21.1433 44.2779ZM22.8902 47.8659L21.4635 47.9194L22.8902 47.8659ZM23.5215 53.8249V55.2692H22.2573L22.1044 53.9996L23.5215 53.8249ZM25.0212 61.0464V53.8249H27.8765V61.0464H25.0212ZM10.7448 59.6021H26.4489V62.4907H10.7448V59.6021ZM12.1724 53.8249V61.0464H9.31716V53.8249H12.1724ZM11.4182 55.2692H10.7448V52.3806H11.4182V55.2692ZM10.2496 54.6546C9.45621 53.5109 8.60982 52.6069 7.67987 51.617L9.74945 49.627C10.6679 50.6044 11.6554 51.6525 12.5867 52.9953L10.2496 54.6546ZM7.67987 51.617C6.46289 50.3216 5.12993 48.9083 3.9053 46.8029L6.36615 45.3379C7.40812 47.1294 8.53321 48.3324 9.74945 49.627L7.67987 51.617ZM3.9053 46.8029C3.63056 46.3306 3.35046 45.8743 3.06894 45.416L5.49419 43.8914C5.77317 44.3457 6.07122 44.8308 6.36615 45.3379L3.9053 46.8029ZM3.06894 45.416C2.11118 43.8566 0.997718 42.0986 0.787041 40.2144L3.62422 39.8897C3.74754 40.9926 4.42797 42.1555 5.49419 43.8914L3.06894 45.416ZM0.787041 40.2144C0.669432 39.1625 0.584858 35.7407 0.598335 32.4416C0.605145 30.7732 0.637153 29.0971 0.705537 27.7205C0.739672 27.0333 0.783571 26.4059 0.84002 25.8845C0.892315 25.4014 0.966552 24.8897 1.09684 24.506L3.79725 25.4443C3.79815 25.4417 3.79276 25.4576 3.78319 25.4983C3.77397 25.5378 3.76306 25.5909 3.75108 25.6597C3.72693 25.7982 3.7023 25.9775 3.67833 26.199C3.63039 26.6419 3.58993 27.2071 3.55722 27.8655C3.49192 29.1801 3.46032 30.8074 3.45359 32.4535C3.44 35.7835 3.5286 39.0344 3.62422 39.8897L0.787041 40.2144ZM1.09684 24.506C1.61854 22.9695 3.23004 21.9776 4.83636 22.0158C6.65465 22.0592 8.23899 23.3366 8.96131 25.7262L6.23083 26.571C5.78198 25.086 5.0857 24.9112 4.76919 24.9037C4.24074 24.891 3.86331 25.2498 3.79725 25.4443L1.09684 24.506ZM8.96131 25.7262C9.59527 27.8238 9.78371 30.4599 9.94561 32.6415L7.09836 32.8579C6.92923 30.5791 6.75262 28.2972 6.23083 26.571L8.96131 25.7262ZM9.94561 32.6415C10.0316 33.8001 10.1089 34.8341 10.2286 35.6981C10.3545 36.6081 10.5031 37.1181 10.6287 37.3417L8.14634 38.769C7.7284 38.025 7.52928 37.027 7.40081 36.0986C7.26595 35.124 7.18232 33.9889 7.09836 32.8579L9.94561 32.6415ZM10.6287 37.3417C11.1238 38.223 12.2128 39.8282 13.2199 41.2667C13.7149 41.9739 14.1771 42.6225 14.5158 43.0945C14.685 43.3303 14.8232 43.5218 14.9188 43.6541C14.9666 43.7203 15.0039 43.7716 15.029 43.8062C15.0416 43.8236 15.0511 43.8368 15.0576 43.8455C15.0607 43.85 15.0631 43.8532 15.0647 43.8553C15.0654 43.8565 15.066 43.8572 15.0664 43.8578C15.0666 43.8579 15.0667 43.8582 15.0667 43.8584C15.0668 43.8584 15.0668 43.8584 15.0668 43.8584C15.0668 43.8584 15.0668 43.8584 13.9172 44.7148C12.7676 45.5712 12.7676 45.5712 12.7675 45.571C12.7675 45.571 12.7675 45.5709 12.7673 45.5709C12.7672 45.5706 12.7671 45.5704 12.7668 45.57C12.7663 45.5694 12.7656 45.5686 12.7648 45.5673C12.7631 45.5648 12.7605 45.5613 12.7571 45.5566C12.7504 45.5473 12.7404 45.5336 12.7274 45.5157C12.7012 45.4799 12.6633 45.4273 12.6144 45.3599C12.5168 45.225 12.3766 45.0304 12.205 44.7912C11.8619 44.313 11.393 43.655 10.8897 42.936C9.90007 41.5225 8.72431 39.7979 8.14634 38.769L10.6287 37.3417ZM12.6441 45.3682L9.66251 39.4234L12.2089 38.1164L15.1903 44.0613L12.6441 45.3682ZM10.9357 38.7698C9.68949 39.4746 9.68921 39.4739 9.68878 39.4733C9.68878 39.473 9.68835 39.4725 9.68806 39.472C9.68763 39.4712 9.68721 39.4703 9.68664 39.4693C9.68564 39.4676 9.68464 39.4657 9.68364 39.4638C9.6815 39.4599 9.67935 39.4559 9.67707 39.4515C9.6725 39.443 9.66751 39.4335 9.66222 39.4231C9.65166 39.4023 9.63952 39.3779 9.62653 39.3499C9.60026 39.2938 9.56957 39.2233 9.53716 39.1387C9.4722 38.9691 9.40025 38.743 9.34143 38.4619C9.22322 37.8963 9.16219 37.1239 9.30917 36.1637L12.1308 36.6058C12.0387 37.2077 12.0855 37.6278 12.1349 37.8642C12.16 37.9843 12.1867 38.0614 12.1996 38.095C12.206 38.1119 12.2091 38.118 12.2069 38.1131C12.2056 38.1106 12.2031 38.1054 12.1991 38.0974C12.197 38.0935 12.1946 38.0887 12.1917 38.0833C12.1903 38.0807 12.1887 38.0779 12.1872 38.0748C12.1863 38.0732 12.1854 38.0716 12.1846 38.0701C12.1842 38.0693 12.1837 38.0685 12.1833 38.0676C12.183 38.0672 12.1827 38.0666 12.1826 38.0665C12.1822 38.0657 12.1819 38.0652 10.9357 38.7698ZM9.30917 36.1637C9.4802 35.0461 10.1562 33.8064 10.9872 33.0612C11.3934 32.697 12.0621 32.2501 12.9011 32.2927C13.8783 32.3424 14.5292 33.0068 14.8837 33.7349L12.3222 35.0112C12.2841 34.9329 12.2852 34.9702 12.3665 35.0344C12.4621 35.1101 12.6025 35.1698 12.7579 35.1777C13.0146 35.1907 13.0602 35.0625 12.8811 35.2229C12.7371 35.352 12.5592 35.5759 12.4042 35.8617C12.249 36.148 12.1596 36.4175 12.1308 36.6058L9.30917 36.1637ZM14.8837 33.7349C15.2436 34.4741 15.7563 35.2092 16.2014 35.7791C16.42 36.0592 16.6138 36.2887 16.7516 36.4465C16.8203 36.5252 16.8745 36.5856 16.9104 36.6249C16.9282 36.6445 16.9415 36.6588 16.9496 36.6676C16.9536 36.672 16.9563 36.6749 16.9578 36.6765C16.9585 36.6772 16.9589 36.6776 16.9589 36.6776C16.9589 36.6776 16.9588 36.6775 16.9586 36.6773C16.9585 36.6772 16.9585 36.6772 16.9583 36.677C16.9582 36.6769 16.9582 36.6767 16.958 36.6767C16.9579 36.6766 16.9579 36.6765 15.9253 37.674C14.8928 38.6715 14.8927 38.6713 14.8925 38.6712C14.8925 38.671 14.8924 38.6709 14.8922 38.6707C14.8921 38.6706 14.8918 38.6703 14.8915 38.67C14.891 38.6694 14.8904 38.6689 14.8897 38.668C14.8883 38.6666 14.8865 38.6647 14.8844 38.6624C14.8801 38.6579 14.8745 38.6518 14.8675 38.6443C14.8536 38.6293 14.8343 38.6083 14.8102 38.5818C14.7618 38.5288 14.6941 38.4532 14.611 38.3582C14.4454 38.1683 14.2173 37.898 13.9609 37.5698C13.456 36.9233 12.8076 36.0079 12.3222 35.0112L14.8837 33.7349ZM17.0406 36.7722L22.2585 43.3763L20.0282 45.1798L14.8102 38.5757L17.0406 36.7722ZM21.1433 44.2779C22.2896 43.417 22.2897 43.4173 22.2899 43.4174C22.2899 43.4174 22.29 43.4176 22.2901 43.4177C22.2903 43.418 22.2906 43.4183 22.2907 43.4186C22.2913 43.4193 22.2919 43.42 22.2926 43.421C22.2939 43.4229 22.2957 43.4254 22.2979 43.4284C22.3023 43.4345 22.3083 43.4426 22.3157 43.453C22.3305 43.4736 22.3514 43.5026 22.3774 43.5393C22.4292 43.6127 22.5019 43.7168 22.5885 43.8449C22.7608 44.1001 22.9928 44.457 23.2285 44.8609C23.462 45.2608 23.7125 45.7295 23.912 46.2052C24.1001 46.6544 24.2954 47.2306 24.3168 47.8123L21.4635 47.9194C21.4615 47.8654 21.4269 47.6755 21.2832 47.3328C21.1506 47.0166 20.9674 46.6678 20.77 46.3297C20.5748 45.9953 20.379 45.6936 20.2311 45.4747C20.1575 45.3659 20.0969 45.279 20.0556 45.2206C20.035 45.1916 20.0193 45.1696 20.0092 45.1558C20.0042 45.1487 20.0006 45.1438 19.9985 45.1409C19.9975 45.1396 19.9969 45.1387 19.9966 45.1383C19.9965 45.1382 19.9965 45.1382 19.9965 45.1382C19.9966 45.1383 19.9966 45.1383 19.9968 45.1384C19.9968 45.1386 19.9969 45.1386 19.9969 45.1387C19.9969 45.1387 19.9971 45.1389 21.1433 44.2779ZM24.3168 47.8123C24.3471 48.6374 24.7161 51.8033 24.9387 53.6501L22.1044 53.9996C21.8921 52.238 21.4995 48.9016 21.4635 47.9194L24.3168 47.8123ZM26.4489 55.2692H23.5215V52.3806H26.4489V55.2692Z" fill="white"/>
<path d="M32.1077 61.0464H30.6801V62.4907H32.1077V61.0464ZM32.1077 53.8249V52.3806H30.6801V53.8249H32.1077ZM47.8118 61.0464V62.4907H49.2394V61.0464H47.8118ZM47.8118 53.8249H49.2394V52.3806H47.8118V53.8249ZM47.1383 53.8249L45.9698 52.9953L44.3924 55.2692H47.1383V53.8249ZM49.8419 50.622L48.8071 49.627L49.8419 50.622ZM53.4208 46.0705L52.1905 45.3379L53.4208 46.0705ZM54.275 44.6537L53.0623 43.8914L54.275 44.6537ZM56.3509 40.0521L54.9323 39.8897L56.3509 40.0521ZM56.1095 24.9752L57.4598 24.506L56.1095 24.9752ZM50.9604 26.1486L52.3257 26.571L50.9604 26.1486ZM50.0346 32.7497L51.4582 32.8579L50.0346 32.7497ZM49.169 38.0553L47.9278 37.3417L49.169 38.0553ZM44.6394 44.7148L43.3662 44.0613L45.7889 45.5712L44.6394 44.7148ZM47.6209 38.7698L46.3747 38.0651L46.3607 38.0904L46.3477 38.1164L47.6209 38.7698ZM47.8366 36.3847L49.2474 36.1637L47.8366 36.3847ZM42.6313 37.674L41.5987 36.6765L41.5553 36.7225L41.516 36.7722L42.6313 37.674ZM37.4132 44.2779L36.2981 43.3763L36.2821 43.3963L36.267 43.417L37.4132 44.2779ZM35.6664 47.8659L37.093 47.9194L35.6664 47.8659ZM35.0351 53.8249V55.2692H36.2993L36.4522 53.9996L35.0351 53.8249ZM33.5353 61.0464V53.8249H30.6801V61.0464H33.5353ZM47.8118 59.6021H32.1077V62.4907H47.8118V59.6021ZM46.3841 53.8249V61.0464H49.2394V53.8249H46.3841ZM47.1383 55.2692H47.8118V52.3806H47.1383V55.2692ZM48.307 54.6546C49.1004 53.5109 49.9468 52.6069 50.8766 51.617L48.8071 49.627C47.8887 50.6044 46.9012 51.6525 45.9698 52.9953L48.307 54.6546ZM50.8766 51.617C52.0937 50.3216 53.4267 48.9083 54.6513 46.8029L52.1905 45.3379C51.1484 47.1294 50.0233 48.3324 48.8071 49.627L50.8766 51.617ZM54.6513 46.8029C54.926 46.3306 55.2061 45.8743 55.4876 45.416L53.0623 43.8914C52.7834 44.3457 52.4853 44.8308 52.1905 45.3379L54.6513 46.8029ZM55.4876 45.416C56.4454 43.8566 57.5588 42.0986 57.7696 40.2144L54.9323 39.8897C54.8091 40.9926 54.1286 42.1555 53.0623 43.8914L55.4876 45.416ZM57.7696 40.2144C57.8872 39.1625 57.9717 35.7407 57.9582 32.4416C57.9514 30.7732 57.9195 29.0971 57.8511 27.7205C57.817 27.0333 57.773 26.4059 57.7166 25.8845C57.6642 25.4014 57.59 24.8897 57.4598 24.506L54.7594 25.4443C54.7584 25.4417 54.7638 25.4576 54.7734 25.4983C54.7827 25.5378 54.7935 25.5909 54.8055 25.6597C54.8296 25.7982 54.8543 25.9775 54.8782 26.199C54.9261 26.6419 54.9667 27.2071 54.9994 27.8655C55.0646 29.1801 55.0963 30.8074 55.103 32.4535C55.1166 35.7835 55.0279 39.0344 54.9323 39.8897L57.7696 40.2144ZM57.4598 24.506C56.938 22.9695 55.3266 21.9776 53.7202 22.0158C51.902 22.0592 50.3176 23.3366 49.5953 25.7262L52.3257 26.571C52.7745 25.086 53.4709 24.9112 53.7873 24.9037C54.3158 24.891 54.6933 25.2498 54.7594 25.4443L57.4598 24.506ZM49.5953 25.7262C48.9613 27.8238 48.7728 30.4599 48.611 32.6415L51.4582 32.8579C51.6273 30.5791 51.804 28.2972 52.3257 26.571L49.5953 25.7262ZM48.611 32.6415C48.525 33.8001 48.4476 34.8341 48.328 35.6981C48.2021 36.6081 48.0535 37.1181 47.9278 37.3417L50.4102 38.769C50.8282 38.025 51.0272 37.027 51.1557 36.0986C51.2906 35.124 51.3743 33.9889 51.4582 32.8579L48.611 32.6415ZM47.9278 37.3417C47.4327 38.223 46.3437 39.8282 45.3367 41.2667C44.8417 41.9739 44.3794 42.6225 44.0408 43.0945C43.8716 43.3303 43.7334 43.5218 43.6378 43.6541C43.5899 43.7203 43.5527 43.7716 43.5275 43.8062C43.515 43.8236 43.5054 43.8368 43.499 43.8455C43.4959 43.85 43.4934 43.8532 43.4919 43.8553C43.4911 43.8565 43.4906 43.8572 43.4901 43.8578C43.49 43.8579 43.4899 43.8582 43.4899 43.8584C43.4897 43.8584 43.4897 43.8584 43.4897 43.8584C43.4897 43.8584 43.4897 43.8584 44.6394 44.7148C45.7889 45.5712 45.7889 45.5712 45.7891 45.571C45.7891 45.571 45.7891 45.5709 45.7892 45.5709C45.7894 45.5706 45.7895 45.5704 45.7898 45.57C45.7902 45.5694 45.7909 45.5686 45.7918 45.5673C45.7935 45.5648 45.7961 45.5613 45.7995 45.5566C45.8062 45.5473 45.8162 45.5336 45.8292 45.5157C45.8553 45.4799 45.8933 45.4273 45.9421 45.3599C46.0398 45.225 46.18 45.0304 46.3516 44.7912C46.6946 44.313 47.1636 43.655 47.6669 42.936C48.6565 41.5225 49.8323 39.7979 50.4102 38.769L47.9278 37.3417ZM45.9124 45.3682L48.8941 39.4234L46.3477 38.1164L43.3662 44.0613L45.9124 45.3682ZM47.6209 38.7698C48.8671 39.4746 48.8674 39.4739 48.8678 39.4733C48.8678 39.473 48.8682 39.4725 48.8685 39.472C48.8689 39.4712 48.8694 39.4703 48.8699 39.4693C48.8709 39.4676 48.8719 39.4657 48.8729 39.4638C48.8751 39.4599 48.8772 39.4559 48.8795 39.4515C48.8841 39.443 48.8891 39.4335 48.8943 39.4231C48.9049 39.4023 48.917 39.3779 48.93 39.3499C48.9563 39.2938 48.987 39.2233 49.0194 39.1387C49.0844 38.9691 49.1563 38.743 49.2151 38.4619C49.3333 37.8963 49.3944 37.1239 49.2474 36.1637L46.4258 36.6058C46.5179 37.2077 46.4711 37.6278 46.4217 37.8642C46.3965 37.9843 46.3698 38.0614 46.357 38.095C46.3506 38.1119 46.3474 38.118 46.3497 38.1131C46.351 38.1106 46.3534 38.1054 46.3574 38.0974C46.3596 38.0935 46.362 38.0887 46.3648 38.0833C46.3663 38.0807 46.3678 38.0779 46.3694 38.0748C46.3703 38.0732 46.3711 38.0716 46.372 38.0701C46.3724 38.0693 46.3728 38.0685 46.3733 38.0676C46.3736 38.0672 46.3738 38.0666 46.374 38.0665C46.3744 38.0657 46.3747 38.0652 47.6209 38.7698ZM49.2474 36.1637C49.0764 35.0461 48.4004 33.8064 47.5693 33.0612C47.1632 32.697 46.4945 32.2501 45.6555 32.2927C44.6782 32.3424 44.0274 33.0068 43.6729 33.7349L46.2344 35.0112C46.2725 34.9329 46.2713 34.9702 46.1901 35.0344C46.0945 35.1101 45.9541 35.1698 45.7986 35.1777C45.542 35.1907 45.4964 35.0625 45.6754 35.2229C45.8195 35.352 45.9974 35.5759 46.1524 35.8617C46.3076 36.148 46.397 36.4175 46.4258 36.6058L49.2474 36.1637ZM43.6729 33.7349C43.313 34.4741 42.8003 35.2092 42.3552 35.7791C42.1366 36.0592 41.9427 36.2887 41.805 36.4465C41.7363 36.5252 41.682 36.5856 41.6462 36.6249C41.6284 36.6445 41.6151 36.6588 41.6069 36.6676C41.6029 36.672 41.6002 36.6749 41.5988 36.6765C41.5981 36.6772 41.5977 36.6776 41.5977 36.6776C41.5977 36.6776 41.5978 36.6775 41.5979 36.6773C41.5981 36.6772 41.5981 36.6772 41.5982 36.677C41.5984 36.6769 41.5984 36.6767 41.5985 36.6767C41.5987 36.6766 41.5987 36.6765 42.6313 37.674C43.6637 38.6715 43.6639 38.6713 43.664 38.6712C43.664 38.671 43.6642 38.6709 43.6643 38.6707C43.6645 38.6706 43.6647 38.6703 43.665 38.67C43.6656 38.6694 43.6662 38.6689 43.6669 38.668C43.6683 38.6666 43.67 38.6647 43.6722 38.6624C43.6765 38.6579 43.682 38.6518 43.689 38.6443C43.703 38.6293 43.7223 38.6083 43.7464 38.5818C43.7948 38.5288 43.8625 38.4532 43.9456 38.3582C44.1112 38.1683 44.3393 37.898 44.5957 37.5698C45.1005 36.9233 45.749 36.0079 46.2344 35.0112L43.6729 33.7349ZM41.516 36.7722L36.2981 43.3763L38.5284 45.1798L43.7464 38.5757L41.516 36.7722ZM37.4132 44.2779C36.267 43.417 36.2668 43.4173 36.2667 43.4174C36.2667 43.4174 36.2666 43.4176 36.2664 43.4177C36.2663 43.418 36.266 43.4183 36.2658 43.4186C36.2653 43.4193 36.2647 43.42 36.264 43.421C36.2627 43.4229 36.2609 43.4254 36.2587 43.4284C36.2543 43.4345 36.2483 43.4426 36.2409 43.453C36.226 43.4736 36.2052 43.5026 36.1792 43.5393C36.1274 43.6127 36.0547 43.7168 35.968 43.8449C35.7957 44.1001 35.5637 44.457 35.328 44.8609C35.0946 45.2608 34.8441 45.7295 34.6446 46.2052C34.4565 46.6544 34.2612 47.2306 34.2397 47.8123L37.093 47.9194C37.095 47.8654 37.1297 47.6755 37.2733 47.3328C37.406 47.0166 37.5891 46.6678 37.7866 46.3297C37.9817 45.9953 38.1776 45.6936 38.3255 45.4747C38.399 45.3659 38.4597 45.279 38.501 45.2206C38.5215 45.1916 38.5372 45.1696 38.5474 45.1558C38.5524 45.1487 38.5559 45.1438 38.5581 45.1409C38.5591 45.1396 38.5596 45.1387 38.5599 45.1383C38.5601 45.1382 38.5601 45.1382 38.5601 45.1382C38.5599 45.1383 38.5599 45.1383 38.5598 45.1384C38.5598 45.1386 38.5596 45.1386 38.5596 45.1387C38.5596 45.1387 38.5595 45.1389 37.4132 44.2779ZM34.2397 47.8123C34.2095 48.6374 33.8404 51.8033 33.6179 53.6501L36.4522 53.9996C36.6644 52.238 37.057 48.9016 37.093 47.9194L34.2397 47.8123ZM32.1077 55.2692H35.0351V52.3806H32.1077V55.2692Z" fill="white"/>
</svg>
