<svg width="52" height="52" viewBox="0 0 52 52" fill="none" xmlns="http://www.w3.org/2000/svg">
<g filter="url(#filter0_b_146_31)">
<rect x="0.5" y="0.5" width="51" height="51" rx="20.5" fill="#0F4C75" fill-opacity="0.3" stroke="white" stroke-linecap="round" stroke-dasharray="4 4"/>
<g clip-path="url(#clip0_146_31)">
<path d="M11.9289 27.145H21.3737L22.8586 20.1491C22.9341 19.7939 23.2504 19.5416 23.6154 19.5527C23.9785 19.5624 24.2829 19.83 24.3392 20.1887L25.5759 28.0721L26.3479 25.6116C26.4378 25.3251 26.6892 25.1194 26.9877 25.0881C27.2862 25.0568 27.5749 25.2055 27.7223 25.4671L28.806 27.3896L39.3998 27.3075C39.8234 26.4831 40.1354 25.5799 40.2895 24.5825C40.719 21.8047 40.0011 19.01 38.3695 17.1065C36.924 15.4204 34.8691 14.5293 32.4269 14.5293C28.6374 14.5293 26.4842 17.074 25.7058 18.2219C24.9275 17.074 22.7742 14.5293 18.9846 14.5293C16.5424 14.5293 14.4875 15.4204 13.042 17.1065C11.4106 19.0098 10.6926 21.8047 11.1222 24.5825C11.2663 25.5144 11.5472 26.3647 11.9289 27.145Z" fill="white"/>
<path d="M28.3741 28.8989C28.1033 28.8945 27.8468 28.7543 27.7123 28.5157L27.2644 27.7213L26.0494 31.5939C25.9503 31.9095 25.658 32.1214 25.3313 32.1214C25.3127 32.1214 25.294 32.1208 25.2752 32.1193C24.9264 32.0934 24.6413 31.8306 24.5871 31.4851L23.4842 24.4557L22.7204 28.0544C22.6466 28.4023 22.3393 28.6511 21.9838 28.6511H12.8455C14.6355 31.0927 17.4057 32.7371 19.6219 34.0511C20.7082 34.6952 21.7342 35.3036 22.4478 35.8857C25.0825 38.0351 25.3237 39.1195 25.3325 39.1647C25.3557 39.3528 25.5148 39.5015 25.7054 39.5015C25.9 39.5015 26.0619 39.3599 26.0795 39.1661C26.0813 39.1554 26.2858 38.0709 28.9646 35.8857C29.6781 35.3036 30.7042 34.6952 31.7905 34.0511C33.9549 32.7677 36.6481 31.1695 38.4402 28.821L28.3741 28.8989Z" fill="white"/>
</g>
</g>
<defs>
<filter id="filter0_b_146_31" x="-45" y="-45" width="142" height="142" filterUnits="userSpaceOnUse" color-interpolation-filters="sRGB">
<feFlood flood-opacity="0" result="BackgroundImageFix"/>
<feGaussianBlur in="BackgroundImage" stdDeviation="22.5"/>
<feComposite in2="SourceAlpha" operator="in" result="effect1_backgroundBlur_146_31"/>
<feBlend mode="normal" in="SourceGraphic" in2="effect1_backgroundBlur_146_31" result="shape"/>
</filter>
<clipPath id="clip0_146_31">
<rect width="29.4118" height="29.4118" fill="white" transform="translate(11 9.82349)"/>
</clipPath>
</defs>
</svg>
